<svg width="28" height="30" viewBox="0 0 28 30" fill="none" xmlns="http://www.w3.org/2000/svg">
<path d="M7.98761 19.7527H24.4837C26.3542 19.7527 27.8802 18.2236 27.8802 16.3493V9.39448C27.8802 9.38831 27.8802 9.37598 27.8802 9.36982C27.8802 9.35132 27.8802 9.33899 27.8802 9.32049C27.8802 9.30816 27.8802 9.29583 27.874 9.2835C27.874 9.27117 27.8679 9.25267 27.8679 9.24034C27.8679 9.22801 27.8617 9.21568 27.8617 9.20335C27.8556 9.19101 27.8556 9.17868 27.8494 9.16019C27.8433 9.14785 27.8433 9.13552 27.8371 9.12319C27.831 9.11086 27.831 9.09853 27.8248 9.0862C27.8186 9.07387 27.8125 9.06154 27.8063 9.04304C27.8002 9.03071 27.794 9.01838 27.7879 9.01221C27.7817 8.99988 27.7756 8.98755 27.7694 8.97522C27.7633 8.96289 27.7571 8.95672 27.751 8.94439C27.7448 8.93206 27.7325 8.91973 27.7264 8.9074C27.7202 8.89506 27.714 8.8889 27.7017 8.87657C27.6956 8.86424 27.6833 8.85807 27.6771 8.84574C27.671 8.83341 27.6587 8.82724 27.6525 8.81491C27.6464 8.80258 27.6341 8.79641 27.6279 8.79025C27.6156 8.77792 27.6094 8.77175 27.5971 8.75942C27.5848 8.75325 27.5787 8.74092 27.5664 8.73476C27.5541 8.72859 27.5418 8.71626 27.5295 8.7101C27.5172 8.70393 27.511 8.69776 27.4987 8.6916C27.4864 8.68543 27.4741 8.67927 27.4618 8.66694C27.4495 8.66077 27.4372 8.6546 27.4249 8.64844C27.4126 8.64227 27.4002 8.63611 27.3879 8.62994C27.3756 8.62378 27.3633 8.61761 27.351 8.61145C27.3387 8.60528 27.3264 8.60528 27.3141 8.59911C27.3018 8.59295 27.2833 8.58678 27.271 8.58678C27.2587 8.58678 27.2464 8.58062 27.2403 8.58062C27.2218 8.57445 27.2095 8.57445 27.191 8.57445C27.1849 8.57445 27.1787 8.56829 27.1664 8.56829L6.25863 5.67661V2.75411C6.25863 2.72328 6.25863 2.69245 6.25247 2.66779C6.25247 2.66162 6.25247 2.65546 6.24632 2.64312C6.24632 2.62463 6.24017 2.60613 6.24017 2.58763C6.23401 2.56914 6.23401 2.55681 6.22786 2.53831C6.22786 2.52598 6.22171 2.51981 6.22171 2.50748C6.21555 2.48898 6.2094 2.47049 6.20325 2.45199C6.20325 2.44582 6.1971 2.43349 6.1971 2.42733C6.19094 2.40883 6.18479 2.3965 6.17248 2.378C6.16633 2.37184 6.16633 2.35951 6.16018 2.35334C6.15403 2.34101 6.14787 2.32868 6.13557 2.31635C6.12941 2.30402 6.12326 2.29785 6.11711 2.28552C6.11095 2.27319 6.1048 2.26702 6.09865 2.25469C6.0925 2.24236 6.08019 2.23003 6.07404 2.2177C6.06788 2.21153 6.06173 2.20537 6.05558 2.1992C6.04327 2.18687 6.03097 2.17454 6.01866 2.16221C6.01251 2.15604 6.00635 2.14987 6.0002 2.14371C5.98789 2.13138 5.97559 2.11905 5.95713 2.10672C5.95098 2.10055 5.93867 2.09438 5.93252 2.08822C5.92021 2.07589 5.90791 2.06972 5.8956 2.05739C5.87714 2.04506 5.85868 2.03273 5.84638 2.02656C5.84022 2.0204 5.83407 2.0204 5.82792 2.01423C5.80331 2.0019 5.77254 1.98957 5.74793 1.97724L1.21319 0.0658951C0.788631 -0.112908 0.302546 0.0843919 0.12411 0.50982C-0.0543268 0.935248 0.142569 1.42233 0.567124 1.60113L4.59117 3.30285V7.07621V7.67427V12.2615V16.3616V21.5408C4.59117 23.2671 5.88329 24.6975 7.55075 24.9133C7.24925 25.4189 7.07082 26.0108 7.07082 26.6397C7.07082 28.4956 8.5783 30 10.4242 30C12.2701 30 13.7776 28.4894 13.7776 26.6397C13.7776 26.0232 13.6114 25.4374 13.3161 24.9442H20.7858C20.4905 25.4436 20.3243 26.0232 20.3243 26.6397C20.3243 28.4956 21.8318 30 23.6777 30C25.5236 30 27.0311 28.4894 27.0311 26.6397C27.0311 24.79 25.5236 23.2795 23.6777 23.2795H7.98761C7.02775 23.2795 6.25247 22.4964 6.25247 21.5408V19.2841C6.75702 19.5801 7.35385 19.7527 7.98761 19.7527ZM12.1224 26.6336C12.1224 27.5707 11.3594 28.3291 10.4303 28.3291C9.50124 28.3291 8.73827 27.5646 8.73827 26.6336C8.73827 25.7025 9.50124 24.938 10.4303 24.938C11.3594 24.938 12.1224 25.6964 12.1224 26.6336ZM25.3759 26.6336C25.3759 27.5707 24.6129 28.3291 23.6838 28.3291C22.7548 28.3291 21.9918 27.5646 21.9918 26.6336C21.9918 25.7025 22.7548 24.938 23.6838 24.938C24.6129 24.938 25.3759 25.6964 25.3759 26.6336ZM24.4837 18.088H7.98761C7.02775 18.088 6.25247 17.305 6.25247 16.3493V12.2492V7.66194V7.35366L26.2189 10.1097V16.3431C26.2189 17.3111 25.4374 18.088 24.4837 18.088Z" fill="white"/>
</svg>
