<svg width="336" height="379" viewBox="0 0 336 379" fill="none" xmlns="http://www.w3.org/2000/svg">
<path d="M101.985 370.329C101.985 365.753 132.36 362.037 169.809 362.037C207.28 362.037 237.634 365.753 237.634 370.329C237.634 374.905 207.259 378.621 169.809 378.621C132.339 378.621 101.985 374.905 101.985 370.329Z" fill="#EDEDED"/>
<path d="M211.911 361.555C223.178 375.838 240.056 373.36 254.911 357.906C242.16 347.042 220.89 343.806 211.911 361.555Z" fill="#2F2F28"/>
<path d="M191.904 365.8C193.256 367.556 214.141 367.77 214.445 363.785C214.682 360.678 211.391 360.363 210.185 360.34C208.291 360.306 203.715 360.52 203.963 359.124C204.414 356.591 216.034 357.525 218.886 357.582C221.726 357.638 227.271 356.963 229.018 354.351C230.765 351.728 231.171 350.467 226.189 350.658C221.208 350.838 211.425 352.426 213.724 349.6C216.023 346.774 223.89 347.303 228.522 345.952C233.143 344.601 241.495 340.458 238.689 338.184C236.175 336.146 223.236 342.046 223.281 339.558C223.315 337.576 227.429 337.317 233.335 334.998C239.241 332.679 244.786 330.427 243.727 326.802C242.881 323.886 239.41 326.172 236.22 327.376C233.019 328.592 228.511 330.101 229.03 328.232C229.559 326.363 245.767 321.95 245.44 316.94C245.226 313.619 242.07 315.668 238.272 316.861C234.473 318.066 233.042 318.201 233.065 317.368C233.076 316.535 237.945 314.092 240.65 312.809C243.355 311.536 246.804 308.778 245.699 306.223C244.595 303.667 240.469 306.155 239.162 307.427C237.855 308.699 236.063 309.352 235.691 308.97C235.319 308.575 239.342 304.072 236.694 302.361C234.045 300.661 230.619 305.344 230.562 308.485C230.506 311.626 230.314 315.882 229.165 315.859C228.015 315.837 228.083 312.201 228.139 309.33C228.196 306.459 227.553 305.311 226.787 305.288C224.228 305.243 222.008 308.936 221.974 311.03C221.94 313.124 223.248 324.911 221.557 324.877C219.866 324.843 219.833 320.374 219.878 318.055C219.923 315.736 220.024 310.332 217.173 310.275C214.321 310.219 212.664 317.481 212.856 321.905C213.048 326.329 213.904 333.467 212.586 333.445C211.267 333.422 209.621 327.816 209.678 325.001C209.734 322.186 211.244 317.188 207.739 317.12C204.234 317.053 203.445 321.342 203.343 326.87C203.298 329.178 203.253 334.897 205.136 338.027C207.288 341.595 207.773 343.723 206.961 344.264C205.35 345.333 203.884 341.944 203.389 339.287C202.893 336.631 201.844 328.266 197.866 329.741C193.899 331.215 196.457 337.723 197.235 340.436C198.001 343.16 201.551 352.493 199.511 353.292C197.471 354.081 196.919 348.665 196.558 346.999C196.209 345.333 194.372 342.124 193.234 343.239C192.061 344.354 189.503 362.659 191.904 365.8Z" fill="#979797"/>
<path d="M47.0592 276.401C39.9009 278.899 35.3457 273.378 32.9106 269.893C35.1778 269.285 44.4142 267.416 47.0592 276.401Z" fill="#E7C264"/>
<path d="M100.945 316.413C100.756 316.413 100.567 316.329 100.441 316.161C90.9111 303.923 71.5566 287.067 45.7786 276.445C45.4637 276.319 45.2958 275.941 45.4427 275.626C45.5687 275.311 45.9465 275.143 46.2614 275.29C72.2703 286.017 91.8138 303.041 101.428 315.385C101.638 315.657 101.596 316.056 101.323 316.266C101.218 316.371 101.071 316.413 100.945 316.413Z" fill="#E7C264"/>
<path d="M96.6001 305.687C92.5486 290.93 102.415 285.535 109.783 281.105C110.686 285.724 115.073 301.552 96.6001 305.687Z" fill="#E7C264"/>
<path d="M86.293 295.253C80.2054 284.59 86.7968 278.418 91.646 273.506C93.2413 276.907 99.8328 288.347 86.293 295.253Z" fill="#E7C264"/>
<path d="M73.0262 286.353C65.784 278.67 70.0664 272.184 73.1102 267.104C75.1464 269.623 82.9344 277.851 73.0262 286.353Z" fill="#E7C264"/>
<path d="M59.5283 278.797C53.8815 275.459 55.309 270.862 56.2536 267.293C57.912 268.448 63.9786 272.016 59.5283 278.797Z" fill="#E7C264"/>
<path d="M90.0505 310.262C77.7493 304.679 71.6826 312.529 66.8125 318.344C70.717 319.772 83.8999 325.775 90.0505 310.262Z" fill="#E7C264"/>
<path d="M78.6311 299.137C68.8908 292.735 62.6772 298.613 57.7441 302.895C60.8509 304.616 71.2839 311.523 78.6311 299.137Z" fill="#E7C264"/>
<path d="M63.181 288.055C55.5819 285.683 52.6011 290.721 50.187 294.478C52.5591 295.024 60.7039 297.585 63.181 288.055Z" fill="#E7C264"/>
<path d="M52.2652 281.336C48.1718 279.174 45.9257 281.735 44.1204 283.624C45.4219 284.191 49.8301 286.521 52.2652 281.336Z" fill="#E7C264"/>
<path d="M134.732 369.766C144.031 363.657 166.933 318.671 148.922 309.939C131.856 301.668 126.44 336.871 125.432 341.448C121.885 324.171 117.225 307.42 105.826 310.464C94.4274 313.507 105.826 337.9 105.826 337.9C95.456 324.696 69.594 304.355 57.8386 310.464C46.0621 316.572 81.7483 338.446 81.7483 338.446C65.5426 329.251 17.1143 316.866 65.4796 340.23C43.3332 333.072 0.131923 329.545 48.1613 344.491C19.2555 341.972 4.60319 345.919 4.09938 349.991C3.59558 354.064 12.0763 359.815 49.4208 360.739C30.969 363.783 21.7325 368.107 26.4767 369.766C33.9708 369.766 134.732 369.766 134.732 369.766Z" fill="#BBBDBF"/>
<path d="M72.8478 348.059C72.8478 347.24 72.1761 346.568 71.3574 346.568C70.5387 346.568 69.8669 347.24 69.8669 348.059C69.8669 348.877 70.5387 349.549 71.3574 349.549C72.1761 349.549 72.8478 348.877 72.8478 348.059Z" fill="white"/>
<path d="M124.341 356.876C124.341 355.595 123.312 354.566 122.032 354.566C120.751 354.566 119.723 355.595 119.723 356.876C119.723 358.156 120.751 359.185 122.032 359.185C123.312 359.185 124.341 358.156 124.341 356.876Z" fill="white"/>
<path d="M94.2805 339.79C94.2805 338.698 93.3988 337.816 92.3072 337.816C91.2156 337.816 90.334 338.698 90.334 339.79C90.334 340.881 91.2156 341.763 92.3072 341.763C93.3988 341.742 94.2805 340.86 94.2805 339.79Z" fill="white"/>
<path d="M209.904 41.0104C217.419 49.785 228.062 47.7698 237.067 37.5467C228.692 30.9973 215.11 29.5068 209.904 41.0104Z" fill="#BD9631"/>
<path d="M208.098 40.5259C225.039 38.2168 231.043 23.3755 225.564 4C210.701 9.14301 197.959 24.8239 208.098 40.5259Z" fill="#E7C264"/>
<path d="M208.098 41.155C208.014 41.155 207.93 41.134 207.867 41.113C207.553 40.9871 207.385 40.6092 207.532 40.2944C208.77 37.2505 211.289 32.3594 213.955 27.1744C217.167 20.9189 220.798 13.8236 223.087 8.34474C223.212 8.02986 223.59 7.86193 223.905 8.00887C224.22 8.13482 224.388 8.51267 224.241 8.82755C221.932 14.3694 218.3 21.4856 215.068 27.7622C212.423 32.9262 209.925 37.7753 208.686 40.7772C208.581 41.0081 208.329 41.155 208.098 41.155Z" fill="#F5F5F5"/>
<path d="M186.645 66.0512C186.645 64.5398 187.862 63.3223 189.374 63.3223C190.885 63.3223 192.103 64.5398 192.103 66.0512C192.103 67.5626 190.885 68.7802 189.374 68.7802C187.862 68.7802 186.645 67.5626 186.645 66.0512Z" fill="#231F20"/>
<path d="M197.666 66.0512C197.666 64.5398 198.883 63.3223 200.394 63.3223C201.906 63.3223 203.123 64.5398 203.123 66.0512C203.123 67.5626 201.906 68.7802 200.394 68.7802C198.883 68.7802 197.666 67.5626 197.666 66.0512Z" fill="#231F20"/>
<path d="M181.082 66.0512C181.082 64.5398 179.864 63.3223 178.353 63.3223C176.842 63.3223 175.624 64.5398 175.624 66.0512C175.624 67.5626 176.842 68.7802 178.353 68.7802C179.843 68.7802 181.082 67.5626 181.082 66.0512Z" fill="#231F20"/>
<path d="M33.1101 70.5657C34.0547 69.747 35.0833 68.9913 36.1749 68.2776C37.2665 67.5639 38.463 66.9551 39.7225 66.4093C41.0031 65.8845 42.3885 65.4647 43.8789 65.1708C45.3694 64.8769 46.9647 64.709 48.6861 64.709C51.0582 64.709 53.1993 65.0239 55.1306 65.6746C57.0618 66.3254 58.6992 67.249 60.0637 68.4455C61.4281 69.6421 62.4987 71.0905 63.2544 72.7699C64.0101 74.4492 64.388 76.3385 64.388 78.4167C64.388 80.4109 64.0941 82.1532 63.5273 83.6227C62.9605 85.0921 62.2468 86.3516 61.3862 87.4432C60.5255 88.5138 59.5809 89.4584 58.5523 90.2561C57.5237 91.0538 56.558 91.7885 55.6344 92.4602C54.7107 93.153 53.913 93.8247 53.2413 94.4965C52.5696 95.1682 52.1497 95.9029 52.0028 96.7216L51.0162 102.368H43.5431L42.7874 95.9659C42.5984 94.7064 42.7664 93.5938 43.2702 92.6702C43.774 91.7255 44.4457 90.8858 45.2854 90.1091C46.1251 89.3324 47.0697 88.5767 48.1193 87.863C49.1689 87.1283 50.1345 86.3516 51.0372 85.5329C51.9398 84.6932 52.7165 83.7696 53.3253 82.72C53.934 81.6704 54.2489 80.4529 54.2489 79.0254C54.2489 77.2831 53.6402 75.8977 52.4436 74.8691C51.2471 73.8405 49.6517 73.3367 47.6785 73.3367C46.23 73.3367 45.0125 73.5046 44.0259 73.8195C43.0393 74.1343 42.1786 74.4912 41.4859 74.8691C40.7721 75.2469 40.1634 75.6038 39.6596 75.9186C39.1558 76.2335 38.6939 76.4015 38.2321 76.4015C37.2245 76.4015 36.4688 75.9606 35.986 75.1L33.1101 70.5657ZM40.4992 112.78C40.4992 111.92 40.6672 111.08 41.003 110.303C41.3389 109.527 41.7797 108.855 42.3675 108.288C42.9553 107.721 43.627 107.281 44.4037 106.945C45.1804 106.609 46.0411 106.441 46.9437 106.441C47.8464 106.441 48.6861 106.609 49.4628 106.945C50.2605 107.281 50.9322 107.721 51.52 108.288C52.1078 108.855 52.5486 109.527 52.8845 110.303C53.2203 111.08 53.3883 111.899 53.3883 112.78C53.3883 113.683 53.2203 114.502 52.8845 115.278C52.5486 116.034 52.1078 116.706 51.52 117.273C50.9322 117.839 50.2605 118.28 49.4628 118.595C48.6651 118.91 47.8254 119.078 46.9437 119.078C46.0201 119.078 45.1804 118.91 44.4037 118.595C43.627 118.28 42.9553 117.839 42.3675 117.273C41.7797 116.706 41.3389 116.034 41.003 115.278C40.6672 114.502 40.4992 113.662 40.4992 112.78Z" fill="#EDEDED"/>
<path d="M225.815 228.508H224.514C224.472 226.01 224.598 224.12 224.871 222.882C225.165 221.643 225.899 219.922 227.117 217.739C228.334 215.556 229.132 213.813 229.51 212.491C229.888 211.168 230.077 209.531 230.077 207.6C230.077 204.598 229.489 202.373 228.292 200.966C227.096 199.539 225.689 198.825 224.073 198.825C222.835 198.825 221.806 199.161 220.966 199.812C220.337 200.316 220.022 200.819 220.022 201.365C220.022 201.722 220.232 202.289 220.672 203.066C221.638 204.808 222.121 206.277 222.121 207.495C222.121 208.607 221.743 209.531 220.987 210.266C220.232 211.021 219.287 211.378 218.174 211.378C216.915 211.378 215.844 210.938 215.005 210.035C214.144 209.132 213.724 207.957 213.724 206.487C213.724 203.821 214.879 201.491 217.188 199.476C219.497 197.461 222.73 196.453 226.865 196.453C231.252 196.453 234.611 197.503 236.899 199.581C239.187 201.68 240.342 204.199 240.342 207.159C240.342 209.3 239.754 211.294 238.558 213.1C237.361 214.926 235.073 216.941 231.672 219.145C229.384 220.636 227.894 221.958 227.159 223.134C226.424 224.33 225.983 226.115 225.815 228.508ZM225.522 233.441C227.033 233.441 228.334 233.966 229.384 235.036C230.455 236.086 230.979 237.387 230.979 238.899C230.979 240.41 230.455 241.691 229.384 242.761C228.313 243.832 227.033 244.357 225.522 244.357C224.01 244.357 222.709 243.811 221.659 242.761C220.588 241.691 220.064 240.41 220.064 238.899C220.064 237.387 220.588 236.107 221.659 235.036C222.73 233.987 224.01 233.441 225.522 233.441Z" fill="#EDEDED"/>
<path d="M313.709 4.56641C326.535 4.56641 335.918 12.1445 335.918 22.9973V23.4591C335.918 33.8501 329.242 38.3633 322.546 41.2602L320.552 42.0789C318.285 43.0655 317.571 44.346 317.571 47.054V50.3077H307.18V46.3822C307.18 40.5045 308.985 36.8099 314.674 34.3749L316.563 33.5562C322.336 31.0372 325.422 28.77 325.422 23.5221C325.422 17.8333 320.552 14.3066 313.688 14.3066C306.55 14.3066 301.05 17.8333 301.05 24.7816V27.3006H290.659V24.3198C290.68 11.9765 300.694 4.56641 313.709 4.56641ZM312.344 54.695C316.857 54.695 320.195 57.9487 320.195 62.462C320.195 67.0592 316.857 70.313 312.344 70.313C307.915 70.313 304.577 67.0592 304.577 62.462C304.577 57.9487 307.915 54.695 312.344 54.695Z" fill="#EDEDED"/>
<path d="M129.631 34.5859V82.8672H141.407V87.4225H129.631V101.109H124.488V87.4225H88.1719V83.0562L120.772 34.5859H129.631ZM93.8817 82.8882H124.488V39.54H123.354L93.8817 82.8882Z" fill="#231F20"/>
<path d="M279.513 34.5859V82.8672H291.289V87.4225H279.513V101.109H274.37V87.4225H238.054V83.0562L270.654 34.5859H279.513ZM243.764 82.8882H274.37V39.54H273.236L243.764 82.8882Z" fill="#231F20"/>
<path d="M191.38 103.695L191.381 97.6914L187.708 97.6907L187.706 103.694L191.38 103.695Z" fill="#231F20"/>
<path d="M193.047 132.849V103.691H189.521V136.355C191.473 136.355 193.047 134.78 193.047 132.849Z" fill="#231F20"/>
<path d="M186.015 103.691V132.849C186.015 134.801 187.589 136.376 189.542 136.376V103.691H186.015Z" fill="#231F20"/>
<path d="M213.577 41.8487C200.289 28.5608 178.752 28.5608 165.485 41.8487C152.197 55.1366 152.197 76.6532 165.485 89.9411C178.773 103.229 200.289 103.229 213.577 89.9411C226.865 76.6532 226.865 55.1156 213.577 41.8487ZM189.71 95.441C173.399 95.5249 160.09 82.384 160.006 66.0733C159.922 49.7626 173.063 36.4538 189.374 36.3698C205.684 36.2859 218.993 49.4268 219.077 65.7375C219.161 82.0481 206.02 95.336 189.71 95.441Z" fill="#231F20"/>
<path opacity="0.1" d="M208.161 42.9609C212.402 48.041 214.963 54.5694 214.984 61.6857C215.068 77.9964 201.927 91.3052 185.616 91.3892C178.5 91.4312 171.929 88.9331 166.807 84.7767C172.265 91.3262 180.494 95.4826 189.689 95.4196C205.999 95.3357 219.161 82.0268 219.056 65.7161C219.014 56.5427 214.774 48.3558 208.161 42.9609Z" fill="#231F20"/>
<path d="M139.497 206.635C136.621 203.255 133.262 197.189 133.262 194.963C134.165 192.255 139.455 189.464 142.016 182.347C145.984 171.306 145.858 151.363 145.858 151.363C138.028 155.394 126.482 170.592 120.038 193.389C118.673 198.217 127.784 209.889 138.258 221.476C138.426 218.852 139.14 210.539 139.497 206.635Z" fill="#BD9631"/>
<path d="M138.363 225.15C138.804 260.165 144.85 265.77 146.949 299.714C148.649 327.381 139.14 348.499 137.965 357.84C140.568 357.84 144.325 357.84 144.325 357.84C149.006 345.455 178.815 300.196 170.04 225.15C159.229 225.15 138.363 225.15 138.363 225.15Z" fill="#070707"/>
<path d="M136.474 360.15C137.104 359.332 137.965 357.82 137.965 357.82H144.325C143.695 359.626 143.338 361.158 143.569 362.04C141.911 362.69 139.497 361.053 136.474 360.15Z" fill="#F0CCC0"/>
<path d="M136.474 360.15C139.497 361.053 141.911 362.69 143.569 362.061C144.451 362.69 157.34 367.33 158.642 368.232C159.985 369.156 159.796 370.583 158.369 370.583C156.29 370.583 139.161 369.828 139.161 369.828C138.804 370.206 138.531 370.583 138.531 370.583H134.627C133.472 368.547 133.787 362.48 136.474 360.15Z" fill="#231F20"/>
<path d="M138.363 225.15C138.363 257.058 159.187 258.506 173.189 289.469C182.803 310.734 184.713 352.214 185.133 357.84C187.736 357.84 191.494 357.84 191.494 357.84C194.957 342.705 205.033 284.977 185.133 225.15C174.322 225.15 138.363 225.15 138.363 225.15Z" fill="#231F20"/>
<path d="M185.154 360.15C185.133 359.101 185.133 357.82 185.133 357.82H191.494C191.263 359.626 191.998 361.158 192.25 362.04C190.591 362.69 188.177 361.053 185.154 360.15Z" fill="#F0CCC0"/>
<path d="M185.154 360.15C188.177 361.053 190.591 362.69 192.25 362.061C193.131 362.69 206.02 367.33 207.343 368.232C208.686 369.156 208.497 370.583 207.07 370.583C204.992 370.583 187.862 369.828 187.862 369.828C187.526 370.206 187.233 370.583 187.233 370.583H183.328C182.132 368.547 182.446 362.48 185.154 360.15Z" fill="#231F20"/>
<path d="M153.1 147.165C143.947 150.418 141.911 154.554 139.518 171.368C137.104 188.183 138.384 225.128 138.384 225.128C141.134 225.128 185.154 225.128 185.154 225.128C186.812 214.968 185.532 183.648 182.11 167.884C180.284 159.424 179.843 147.71 170.229 146.955C163.449 146.43 153.1 147.165 153.1 147.165Z" fill="#E7C264"/>
<path d="M165.737 119.14C167.017 122.855 172.013 133.603 170.607 138.137C169.452 141.874 165.8 143.197 159.271 142.399C152.743 141.58 150.224 130.58 148.775 127.537C146.466 122.729 163.05 111.31 165.737 119.14Z" fill="#EDB5A6"/>
<path d="M165.002 141.895C165.338 143.889 166.219 146.786 166.219 146.786C165.359 147.941 152.722 149.41 153.939 147.353C154.38 143.7 154.086 135.262 154.086 135.262L165.002 141.895Z" fill="#EDB5A6"/>
<path d="M148.754 118.385C154.464 114.27 161.433 106.524 162.504 107.112C162.693 107.217 162.378 107.742 162.609 107.868C162.987 108.078 164.981 103.124 167.878 104.341C170.775 105.559 170.964 114.186 165.758 119.141C160.531 124.095 166.954 126.866 164.708 129.49C162.462 132.114 164.183 139.545 159.733 140.531C155.283 141.518 153.247 144.793 152.806 141.959C152.365 139.125 148.691 134.087 147.978 129.28C147.243 124.452 145.585 120.673 148.754 118.385Z" fill="#231F20"/>
<path d="M162.924 128.273C162.651 127.16 162.987 126.11 163.701 125.922C164.414 125.733 165.233 126.488 165.506 127.601C165.779 128.713 165.443 129.763 164.729 129.952C164.015 130.141 163.218 129.385 162.924 128.273Z" fill="#EDB5A6"/>
<path d="M188.597 125.732C186.497 124.787 184.776 122.646 185.133 118.931C185.511 115.236 183.769 112.276 186.015 112.843C188.261 113.41 192.48 111.541 193.047 110.975C195.566 110.975 195.419 117.398 194.726 119.224C194.034 121.03 188.597 125.732 188.597 125.732Z" fill="#EDB5A6"/>
<path d="M169.578 146.954C182.278 148.193 203.333 145.401 203.333 141.287C200.646 138.6 188.261 126.151 188.261 126.151C191.2 122.268 193.593 119.035 193.593 119.035C207.447 128.523 227.432 140.237 221.995 148.298C214.669 159.172 178.227 171.116 178.227 171.116L169.578 146.954Z" fill="#E7C264"/>
<path d="M272.514 311.029L265.461 312.456C264.915 312.561 264.453 312.96 264.286 313.506L261.997 320.328C261.809 320.853 261.934 321.462 262.312 321.881L267.077 327.276C267.455 327.696 268.022 327.885 268.568 327.78L275.621 326.353C276.167 326.248 276.629 325.849 276.797 325.303L279.085 318.46C279.274 317.935 279.148 317.347 278.77 316.906L274.005 311.511C273.627 311.113 273.06 310.924 272.514 311.029Z" fill="#E7C264"/>
<path d="M65.4561 2.36847L68.4789 13.1583C68.8148 14.3338 70.2842 14.7117 71.1239 13.83L78.9539 5.81113C79.7935 4.95047 79.3947 3.48103 78.2192 3.18715L67.3454 0.416218C66.1698 0.10134 65.1202 1.19292 65.4561 2.36847Z" fill="#979797"/>
<path d="M8.09565 196.502L0.433614 204.689C-0.406061 205.571 0.0347662 207.019 1.2313 207.313L12.1471 209.853C13.3226 210.126 14.3722 209.014 14.0154 207.859L10.7616 197.132C10.4048 195.957 8.91433 195.621 8.09565 196.502Z" fill="#979797"/>
</svg>
