<svg width="22" height="22" viewBox="0 0 22 22" fill="none" xmlns="http://www.w3.org/2000/svg">
<path d="M17.8871 1.63555L17.8871 7.22146C16.8414 7.54378 16.0765 8.55538 16.0765 9.75621C16.0765 10.957 16.8414 11.9686 17.8871 12.291L17.8871 20.7021C17.8871 21.1029 18.1959 21.4376 18.5882 21.4376C18.9805 21.4376 19.2894 21.1029 19.2894 20.7021L19.2894 12.291C20.335 11.9686 21.1 10.957 21.1 9.75621C21.1 8.55538 20.335 7.54378 19.2894 7.22147L19.2894 1.63555C19.2894 1.23476 18.9805 0.9 18.5882 0.9C18.1959 0.9 17.8871 1.23476 17.8871 1.63555ZM19.6976 9.75621C19.6976 10.4114 19.1948 10.9348 18.5882 10.9348C17.9817 10.9348 17.4788 10.4114 17.4788 9.75621C17.4788 9.10106 17.9817 8.57766 18.5882 8.57766C19.1948 8.57766 19.6976 9.10106 19.6976 9.75621Z" fill="white" stroke="white" stroke-width="0.2"/>
<path d="M11.7015 20.7021L11.7015 19.4161C12.7472 19.0938 13.5121 18.0822 13.5121 16.8813C13.5121 15.6805 12.7472 14.6689 11.7015 14.3466L11.7015 1.63555C11.7015 1.23476 11.3926 0.9 11.0003 0.9C10.6081 0.9 10.2992 1.23476 10.2992 1.63555L10.2992 14.3466C9.25354 14.6689 8.48858 15.6805 8.48858 16.8813C8.48858 18.0822 9.25354 19.0938 10.2992 19.4161L10.2992 20.7021C10.2992 21.1029 10.608 21.4376 11.0003 21.4376C11.3926 21.4376 11.7015 21.1029 11.7015 20.7021ZM9.89094 16.8813C9.89094 16.2262 10.3938 15.7028 11.0003 15.7028C11.6069 15.7028 12.1097 16.2262 12.1097 16.8813C12.1097 17.5365 11.6069 18.0599 11.0003 18.0599C10.3938 18.0599 9.89094 17.5365 9.89094 16.8813Z" fill="white" stroke="white" stroke-width="0.2"/>
<path d="M4.11266 20.7021L4.11266 8.46281C5.15827 8.14055 5.92324 7.12902 5.92324 5.92883C5.92324 4.728 5.15828 3.7164 4.11266 3.39409L4.11266 1.63555C4.11266 1.23476 3.80377 0.9 3.41148 0.9C3.01918 0.9 2.7103 1.23476 2.7103 1.63555L2.7103 3.39409C1.66467 3.7164 0.899716 4.728 0.899716 5.92883C0.899716 7.12902 1.66469 8.14055 2.7103 8.46281L2.7103 20.7021C2.7103 21.1029 3.01918 21.4376 3.41148 21.4376C3.80377 21.4376 4.11266 21.1029 4.11266 20.7021ZM2.30207 5.92883C2.30207 5.27369 2.80494 4.75028 3.41148 4.75028C4.01802 4.75028 4.52088 5.27369 4.52088 5.92883C4.52088 6.58311 4.01806 7.10656 3.41148 7.10656C2.8049 7.10656 2.30207 6.58311 2.30207 5.92883Z" fill="white" stroke="white" stroke-width="0.2"/>
</svg>
