<svg width="230" height="227" viewBox="0 0 230 227" fill="none" xmlns="http://www.w3.org/2000/svg">
<path d="M54.8001 118.394C54.8001 118.394 43.4395 138.214 53.2271 169.534C62.9798 200.854 104.962 209.349 128.452 169.988C151.907 130.628 113.84 72.7764 54.8001 118.394Z" fill="#FFA8A8"/>
<path d="M200.95 42.3299C199.133 37.506 186.583 31.0392 184.346 40.6171C183.542 44.0777 187.213 46.5595 190.254 48.4122C190.114 48.4821 190.009 48.552 189.869 48.6569C186.024 51.768 187.807 65.5056 192.211 65.4007C196.616 65.3308 200.601 56.7317 200.601 56.7317C200.601 56.7317 203.747 49.7755 200.95 42.3299Z" fill="#311E69"/>
<path d="M227.033 114.657C220.426 88.3705 207.143 69.2846 149.466 67.5019C129.226 66.8727 111.399 80.3306 110.07 100.5C105.002 179.116 95.7965 179.684 93 226C126.028 226.736 201.209 227 208.5 226C205.284 169.791 235.422 147.9 227.033 114.657Z" fill="#8CAA6E"/>
<path d="M227.771 115.064C222.947 95.8033 214.488 80.4228 187.677 72.8723C188.201 80.2829 150.099 152.432 116.088 156.137C98.7145 158.025 137.201 172.322 139.263 190.184C140.976 204.83 151.952 195.875 155.762 226.881C183.168 227.091 188 226.881 209 226.016C205.784 169.772 236.161 148.307 227.771 115.064Z" fill="#77925C"/>
<path d="M194.693 58.1299L192.526 77.5653C191.407 80.0122 175.118 80.6764 172.706 75.8175C172.007 74.3843 173.405 72.1821 175.642 70.1547L188.366 59.2834L194.693 58.1299Z" fill="#FFA8A8"/>
<path d="M121.706 206.377C121.706 206.377 144.776 209.803 163.373 204.525C181.969 199.281 211.332 169.814 213.36 147.197C215.387 124.581 121.706 206.377 121.706 206.377Z" fill="#181818"/>
<path d="M185.814 61.4856C188.715 62.2546 192.735 63.2683 192.735 63.2683C192.735 63.2683 190.498 67.4281 185.255 68.9312C182.458 69.7002 179.767 69.4555 177.495 68.5816L185.814 61.4856Z" fill="#311E69"/>
<path d="M193.854 50.1599L193.26 61.3457C192.77 65.0161 189.45 67.6378 185.779 67.2533C182.843 66.9387 181.095 66.2745 177.879 64.5267C175.188 63.0935 174.768 59.7727 176.236 56.0674C178.124 51.2435 181.2 47.3285 182.983 45.336C187.003 40.7917 193.714 42.8541 193.854 50.1599Z" fill="#FFA8A8"/>
<path d="M192.736 54.5293C191.547 53.7952 191.966 55.0885 190.324 55.9974C188.681 56.9062 187.877 56.4169 184.346 53.2359C182.249 51.3832 180.291 50.789 178.998 50.6492C177.984 52.2571 175.397 54.0049 174.628 55.9974C173.195 59.7027 173.964 64.5616 176.656 66.0297C179.907 67.7775 182.528 67.9523 185.5 68.2669C189.17 68.6514 192.805 65.051 193.295 61.3806L193.609 55.3332C193.295 54.9837 192.98 54.704 192.736 54.5293Z" fill="#311E69"/>
<path d="M193.26 61.3807L193.33 60.1223C191.617 60.367 189.939 60.8214 189.1 61.4856C187.003 63.0936 180.571 64.0723 179.173 63.3732C177.775 62.6741 177.635 61.5905 175.922 61.206C174.978 60.9962 174.349 59.7029 173.964 58.5493C173.58 61.6604 174.524 64.8763 176.621 66.0298C179.872 67.7776 182.494 67.9524 185.465 68.267C189.135 68.6515 192.771 65.0511 193.26 61.3807Z" fill="#1E1240"/>
<path d="M184.451 55.6131C184.451 55.6131 182.039 54.6693 179.382 52.2573C179.382 52.2573 177.949 54.11 178.648 55.5781C179.312 57.0463 182.144 57.3958 184.451 55.6131Z" fill="white"/>
<path d="M192.875 45.7205C192.875 45.7205 193.889 50.3696 192.875 52.2572C191.862 54.1448 191.267 54.8789 191.722 55.6829C192.176 56.4868 194.658 55.7178 195.427 53.6205C196.196 51.5581 197.35 46.07 192.875 45.7205Z" fill="#311E69"/>
<path d="M0 48.4585L51.4028 29.1304L117 37.2697L75.4697 57.4315L0 48.4585Z" fill="#7D70EF"/>
<path d="M0 48.4585L7.81024 139.483L77.6636 147.337L75.4697 57.4315L0 48.4585Z" fill="#614CD4"/>
<path d="M77.6636 147.337L115.223 124.696L117 37.2698L75.4697 57.4316L77.6636 147.337Z" fill="#311E69"/>
<path d="M35.1021 52.627L40.85 143.191L47.7169 143.98L45.6108 53.8775L35.1021 52.627Z" fill="#FF8F8F"/>
<path d="M35.1021 52.6268L70.2042 31.4778L79.8573 32.6625L45.6108 53.8774L35.1021 52.6268Z" fill="#FFBE92"/>
<path d="M90.7832 49.9943L94.6664 137.092L101.445 133.077L97.4965 46.7473L90.7832 49.9943Z" fill="#D95F76"/>
<path d="M97.4964 46.7472L35.1023 35.2732L27.6431 38.0814L90.7831 49.9942L97.4964 46.7472Z" fill="#FFBE92"/>
<path d="M57.48 35.2733C57.48 35.2733 35.7605 7.01601 50.0866 2.86956C64.4127 -1.27688 69.9413 1.48742 69.327 7.49867C68.7127 13.488 66.4091 35.3391 57.48 35.2733Z" fill="#D95F76"/>
<path d="M59.0595 11.5792C51.6881 10.8772 48.0023 11.7767 46.0278 14.5849C48.7921 23.9528 57.4799 35.2513 57.4799 35.2513C64.6539 35.3171 67.5279 21.2762 68.7126 12.6104C66.4968 12.1058 63.2718 11.9741 59.0595 11.5792Z" fill="#B53A67"/>
<path d="M59.0596 32.2677C59.0596 32.2677 68.4055 1.9482 78.5632 3.48392C88.7209 5.01964 94.2715 11.4916 92.8893 15.1773C91.5072 18.8631 61.7361 38.279 60.3978 35.2733C59.0596 32.2677 59.0596 32.2677 59.0596 32.2677Z" fill="#D95F76"/>
<path d="M57.48 32.9258C57.48 32.9258 46.4667 14.4094 35.1023 14.4094C23.738 14.4094 21.4344 28.4284 22.8166 32.1141C24.2207 35.7998 50.2621 39.1345 57.48 32.9258Z" fill="#D95F76"/>
<path d="M78.673 24.5231C79.5505 21.1445 86.7245 15.2869 79.1337 11.3598C73.3418 8.37611 65.5096 18.7313 62.1311 23.8211C60.2224 28.5599 59.0815 32.2675 59.0815 32.2675C59.0815 32.2675 59.0815 32.2675 60.4198 35.2732C61.1438 36.9186 70.2704 31.9165 78.673 26.4318C78.5194 25.7956 78.4974 25.1813 78.673 24.5231Z" fill="#B53A67"/>
<path d="M59.0596 35.0319C59.0596 35.0319 90.1031 13.8171 95.3465 19.4992C100.59 25.1814 98.4179 35.7998 92.1214 38.7177C85.7811 41.6575 59.7177 42.2937 59.0596 35.0319Z" fill="#D95F76"/>
<path d="M89.3352 30.4907C83.9382 30.4029 69.1734 34.33 65.4657 34.6371C63.2718 34.8126 61.6264 34.3739 60.6392 33.979C59.63 34.6371 59.0596 35.032 59.0596 35.032C59.7177 42.2719 85.803 41.6356 92.0995 38.7178C95.9169 36.9407 98.1985 32.3774 98.2643 27.7703C96.3337 28.7795 92.999 30.5346 89.3352 30.4907Z" fill="#B53A67"/>
<path d="M55.8566 38.2131C55.8566 38.2131 52.478 32.3555 55.8566 31.1269C59.2352 29.8983 64.9393 28.8233 65.0928 32.2896C65.2464 35.756 65.8607 39.9024 55.8566 38.2131Z" fill="#D95F76"/>
<path d="M47.8923 20.9473C49.0112 24.0845 49.4719 28.0774 46.0275 29.657C40.7402 32.0483 32.2938 31.1708 27.0504 28.2529C24.8784 27.0463 23.8912 25.335 23.4524 23.7335C22.3116 27.134 22.2238 30.5346 22.8162 32.0922C24.1983 35.7779 50.2398 39.1126 57.4577 32.9039C57.4796 32.9259 53.5087 26.2784 47.8923 20.9473Z" fill="#B53A67"/>
<path d="M53.6405 32.9257C53.6405 32.9257 30.5169 34.5711 32.5133 41.5696C34.5098 48.5681 47.1466 52.188 51.4466 48.4584C55.7685 44.7288 68.0104 32.5089 53.6405 32.9257Z" fill="#B53A67"/>
<path d="M192.84 55.4383C193.33 54.9489 193.749 54.3897 194.134 53.8304C194.868 52.7467 196.231 51.2786 197.315 53.1662C198.888 55.9277 194.658 61.5556 191.652 60.1574C189.415 59.1436 191.582 56.6618 192.84 55.4383Z" fill="#FFA8A8"/>
<path d="M203.047 99.5874C185.569 106.089 158.409 143.247 138.799 156.041C134.184 159.047 129.291 161.494 124.537 158.733C106.604 148.351 64.133 132.341 43.4742 135.277C43.4742 135.277 32.0786 159.047 49.3817 179.706C60.183 192.605 104.612 219.591 148.936 204.07C171.272 196.275 216.016 153.105 225.489 136.885C237.723 115.912 215.177 95.0781 203.047 99.5874Z" fill="#8CAA6E"/>
<path d="M50.5354 141.22C48.8226 136.431 45.5717 132.516 41.3421 130.069C39.4894 128.985 37.6717 127.727 37.1823 126.678C35.819 123.672 33.8965 127.657 36.4832 131.117C37.7067 132.76 38.1611 134.753 36.5182 133.634C34.8752 132.551 26.1013 125.524 25.9965 130.069C25.8217 138.074 33.7916 144.96 42.6005 147.057C46.3757 147.966 51.689 144.505 50.5354 141.22Z" fill="#FFA8A8"/>
<path d="M215.806 101.824C218.323 106.543 221.329 112.87 221.574 116.401C221.993 122.518 214.583 143.562 203.816 150.553C193.05 157.544 171.971 180.16 153.41 185.334C134.848 190.472 146.034 180.335 125.201 183.481C104.367 186.627 103.738 191.906 89.336 182.328C74.9343 172.75 69.621 163.486 55.7785 164.046C47.1794 164.395 42.2856 159.012 39.8037 154.887C40.0834 162.473 42.3904 171.282 49.3816 179.636C60.1829 192.535 104.612 219.521 148.936 204C171.272 196.205 216.016 153.035 225.489 136.815C233.983 122.309 225.699 107.837 215.806 101.824Z" fill="#77925C"/>
</svg>
