<svg width="25" height="25" viewBox="0 0 25 25" fill="none" xmlns="http://www.w3.org/2000/svg">
<path d="M18.2695 17.269L17.9143 17.6772L18.297 18.0598L24.3737 24.1352C24.4354 24.197 24.4354 24.3064 24.3737 24.3681L24.3736 24.368L24.366 24.3759C24.3398 24.4031 24.3008 24.42 24.257 24.42C24.2232 24.42 24.1764 24.4041 24.1404 24.3681L18.0637 18.2927L17.6811 17.9103L17.273 18.2652C15.5002 19.8069 13.189 20.7393 10.662 20.7393C5.10508 20.7393 0.58 16.215 0.58 10.6596C0.58 5.10406 5.09973 0.58 10.662 0.58C16.2191 0.58 20.744 5.09891 20.744 10.6596C20.744 13.1859 19.8115 15.4966 18.2695 17.269ZM10.6565 0.916674C5.28548 0.916674 0.911462 5.28354 0.911462 10.6596C0.911462 16.0353 5.28502 20.4082 10.6565 20.4082C16.0339 20.4082 20.4015 16.0293 20.4015 10.6596C20.4015 5.28954 16.0334 0.916674 10.6565 0.916674Z" fill="white" stroke="white" stroke-width="1.16"/>
</svg>
