<svg width="470" height="374" viewBox="0 0 470 374" fill="none" xmlns="http://www.w3.org/2000/svg">
<ellipse cx="235" cy="329" rx="235" ry="45" fill="#2F2F29"/>
<path d="M293.644 213.657L324.354 323.618C324.819 325.274 323.888 326.983 322.234 327.449C320.58 327.966 318.822 327.034 318.305 325.378L284.131 212.881C287.285 213.243 290.49 213.502 293.644 213.657Z" fill="#020202"/>
<path d="M187.089 158.573L169.666 300.476C169.511 301.925 170.494 303.22 171.941 303.427C173.337 303.582 174.63 302.598 174.836 301.252L197.533 160.126C197.998 157.227 196.034 154.535 193.138 154.069C190.243 153.603 187.555 155.571 187.089 158.47C187.089 158.418 187.089 158.522 187.089 158.573Z" fill="#020202"/>
<path d="M195.568 167.374L276.738 143.974C279.53 143.146 281.132 140.247 280.357 137.451C279.53 134.656 276.634 133.051 273.843 133.827C273.791 133.827 273.688 133.879 273.636 133.879L193.5 160.644C191.639 161.266 190.657 163.233 191.277 165.097C191.846 166.857 193.759 167.892 195.568 167.374Z" fill="#262728"/>
<path d="M50.9473 38.6725C51.2058 38.5172 51.4643 38.3101 51.7745 38.2066C53.7391 37.2229 56.1173 37.1712 58.237 36.9123C60.667 36.6017 63.0969 36.7052 65.5268 36.757C69.973 36.8606 74.4193 37.2747 78.8655 37.3783C89.1538 37.6371 99.3905 37.4818 109.679 37.43C124.207 37.3265 140.389 34.1167 154.141 40.3809C166.394 45.9721 171.047 59.6913 174.097 71.8573C178.285 88.5274 181.801 105.405 185.265 122.23C187.54 133.205 190.538 143.766 194.829 154.12C197.052 159.505 199.482 164.837 201.499 170.325C202.688 173.638 203.567 177.055 204.807 180.316C213.131 180.834 221.507 183.06 229.83 183.63C239.705 184.251 249.528 185.441 259.3 187.202C274.448 189.894 290.733 192.275 304.692 198.902C310.328 201.594 316.635 205.425 319.013 211.482C321.288 217.28 321.34 226.029 320.461 232.087C319.737 237.005 316.17 236.849 311.413 237.781C302.676 239.541 293.68 239.179 284.891 240.836C271.966 243.321 259.093 245.961 246.219 248.601C239.809 249.947 233.346 251.293 226.935 252.639C220.783 253.934 214.786 255.694 208.478 256.419C201.809 257.143 195.139 255.435 188.625 254.089C176.269 251.604 163.809 249.274 151.298 247.462C137.856 245.547 124.31 245.65 110.92 243.683C104.405 242.699 96.9606 243.114 91.0667 239.749C83.3634 235.296 83.5702 224.632 82.9498 216.711C82.1743 206.564 80.1063 196.572 77.9866 186.632C73.6954 166.804 70.2832 146.821 66.3023 126.941C62.3731 107.268 58.5989 87.4919 53.6874 68.0263C52.6017 63.6258 50.5337 59.536 49.1378 55.239C48.1555 52.1328 47.4317 48.8195 47.7936 45.558C47.9487 44.0049 48.6208 42.8141 49.0861 41.4163C49.448 40.2774 50.0167 39.3455 50.9473 38.6725Z" fill="#EDEDED"/>
<path d="M54.9281 47.7836C55.2383 44.9362 56.5308 42.4512 58.2886 43.176C64.8546 43.6419 69.3525 50.838 72.4545 55.9115C77.9865 64.8678 80.5715 74.963 83.0531 85.1618C86.1551 97.8973 90.2912 110.322 93.4966 123.058C96.6503 135.69 99.4421 148.373 102.182 161.057C106.06 179.125 112.884 195.536 100.114 211.947C98.5632 213.966 96.0816 216.037 93.7034 215.054C90.1878 213.656 89.0504 204.13 88.43 200.92C85.8966 188.495 83.3633 176.019 80.7783 163.594C74.6259 134.188 67.2845 105.145 59.5294 76.1537C57.0995 67.0421 53.8424 57.3611 54.9281 47.7836Z" fill="#979797"/>
<path d="M158.639 199.368C176.889 188.703 199.172 183.992 220.163 185.286C232.622 186.063 245.082 188.962 257.283 191.344C263.953 192.638 270.674 193.88 277.343 195.226C280.135 195.796 282.875 196.365 285.615 197.194C288.872 198.125 291.767 199.782 295.18 199.782C295.8 199.782 295.685 199.782 296.214 199.662C297 199.5 297.351 199.368 297.971 200.145C298.23 200.455 298.54 200.818 298.799 201.128C299.212 201.594 299.212 202.215 298.799 202.681C296.369 205.373 293.68 206.046 290.113 205.891C284.426 205.58 278.739 205.063 273.052 204.441C260.437 203.095 247.874 202.112 235.207 202.008C209.874 201.749 184.489 203.354 159.208 201.439C158.122 201.283 157.605 199.937 158.639 199.368Z" fill="#979797"/>
<path d="M150.988 243.632C138.424 241.975 125.809 240.267 113.246 238.61C108.386 237.937 103.423 237.264 99.1321 234.934C93.1349 231.621 85.7417 219.196 92.8764 213.346C97.6845 209.411 107.456 211.948 112.936 212.932C122.035 214.588 131.135 215.986 140.286 217.436C151.711 219.196 163.034 221.474 174.408 223.131C180.715 224.062 187.023 224.684 193.33 225.46C197.776 225.978 206.359 225.771 209.512 229.602C211.425 231.932 210.701 240.474 210.443 243.528C209.461 256.108 177.096 247.204 169.91 246.22C163.654 245.288 157.295 244.46 150.988 243.632Z" fill="#979797"/>
<path d="M224.454 311.502C222.179 311.347 219.852 310.829 217.784 309.949L218.405 295.505L236.913 293.693L236.19 310.829C235.776 310.881 235.311 310.933 234.897 310.985C231.433 311.347 227.917 311.761 224.454 311.502Z" fill="#E7A579"/>
<path d="M224.453 311.502C227.917 311.761 231.433 311.347 234.845 310.933C235.259 310.881 235.724 310.829 236.138 310.778L235.414 327.758L217.112 323.824L217.732 309.949C219.904 310.829 222.179 311.347 224.453 311.502Z" fill="#E5E6E7"/>
<path d="M214.631 326.257C215.561 324.445 216.44 321.701 217.216 319.527C223.575 321.908 229.83 320.355 236.034 318.232C236.965 321.494 239.964 325.325 240.739 326.412C240.894 326.671 241.101 326.93 241.308 327.137C241.67 327.603 242.135 328.069 242.6 328.431C243.066 328.897 243.531 329.363 244.1 329.725C244.565 330.14 245.082 330.45 245.599 330.761C246.168 331.123 246.685 331.486 247.253 331.796C247.77 332.107 248.339 332.417 248.856 332.676C249.321 332.935 249.787 333.246 250.2 333.453C250.252 333.505 250.355 333.505 250.407 333.556C250.924 333.867 251.441 334.126 252.01 334.385C255.474 336.197 259.093 337.75 262.815 338.992C263.953 339.355 265.142 339.769 266.176 340.494C268.037 341.891 268.812 345.101 267.572 347.327C266.176 349.812 262.66 349.295 260.54 348.88C245.754 346.188 228.848 342.875 214.165 339.924C209.46 338.941 213.7 328.121 214.631 326.257Z" fill="#121212"/>
<path d="M267.313 347.535C265.814 349.657 262.557 349.191 260.54 348.829C245.754 346.085 228.848 342.824 214.114 339.873C213.028 339.666 212.046 338.734 211.994 337.077L267.313 347.535Z" fill="#E5E6E7"/>
<path d="M247.77 338.009C247.874 338.164 248.029 338.216 248.184 338.216C248.442 338.268 248.753 338.164 249.011 337.905L252.01 334.385C251.441 334.126 250.924 333.867 250.407 333.557L247.77 336.663C247.408 337.025 247.408 337.647 247.77 338.009Z" fill="#E5E6E7"/>
<path d="M244.668 336.145C244.772 336.248 244.979 336.352 245.134 336.403C245.392 336.455 245.702 336.352 245.961 336.093L248.856 332.676C248.339 332.365 247.77 332.107 247.253 331.796L244.668 334.799C244.307 335.161 244.358 335.782 244.668 336.145Z" fill="#E5E6E7"/>
<path d="M241.67 333.919C241.773 334.074 241.98 334.126 242.083 334.126C242.394 334.178 242.704 334.074 242.911 333.815L245.547 330.709C245.03 330.399 244.513 330.036 244.048 329.674L241.566 332.521C241.308 332.935 241.308 333.557 241.67 333.919Z" fill="#E5E6E7"/>
<path d="M238.671 331.641C238.775 331.796 238.981 331.848 239.085 331.848C239.343 331.9 239.653 331.796 239.912 331.537L242.6 328.379C242.135 327.965 241.721 327.499 241.308 327.085L238.568 330.295C238.309 330.657 238.309 331.278 238.671 331.641Z" fill="#E5E6E7"/>
<path d="M239.033 203.717C251.183 208.635 265.142 214.174 277.395 218.885C279.153 219.559 282.048 220.594 283.599 218.885C284.943 217.332 284.684 214.64 283.289 213.191C282.513 212.414 281.582 211.897 280.6 211.431C277.602 209.826 274.758 207.962 272.018 205.891C271.553 205.581 271.139 205.27 270.777 204.959C270.725 204.908 270.674 204.908 270.622 204.856C270.26 204.597 269.898 204.286 269.536 203.976C269.123 203.665 268.709 203.303 268.295 202.992C267.882 202.63 267.468 202.267 267.003 201.905C266.589 201.542 266.227 201.232 265.866 200.818C265.452 200.403 265.09 199.989 264.78 199.523C264.418 199.109 264.159 198.695 263.849 198.229C263.694 198.022 263.539 197.763 263.436 197.556C262.867 196.572 262.247 195.33 261.885 194.243C261.523 193.052 261.781 191.654 260.954 190.619C260.075 189.584 258.627 189.635 257.387 189.532C257.335 189.532 257.232 189.532 257.128 189.48C255.681 189.325 255.164 188.859 254.026 188.134C252.01 186.943 248.236 186.167 246.064 185.39C245.599 185.235 243.169 190.464 241.204 192.897C240.17 194.243 235.156 202.112 239.033 203.717Z" fill="#121212"/>
<path d="M283.34 219.092C281.789 220.49 279.049 219.558 277.395 218.937C265.142 214.174 251.183 208.686 239.033 203.716C238.154 203.354 237.43 202.422 237.637 201.128L283.34 219.092Z" fill="#CBCBCB"/>
<path d="M267.933 208.013C268.037 208.169 268.14 208.221 268.244 208.272C268.45 208.376 268.761 208.324 268.967 208.169L271.966 205.891C271.501 205.58 271.087 205.27 270.725 204.959L268.037 206.978C267.727 207.185 267.623 207.703 267.933 208.013Z" fill="#CBCBCB"/>
<path d="M265.504 206.047C265.607 206.15 265.71 206.254 265.866 206.305C266.072 206.409 266.383 206.357 266.589 206.202L269.485 203.976C269.071 203.665 268.657 203.303 268.244 202.992L265.659 204.959C265.297 205.218 265.245 205.684 265.504 206.047Z" fill="#CBCBCB"/>
<path d="M263.229 203.717C263.332 203.872 263.436 203.924 263.539 203.975C263.798 204.079 264.056 204.027 264.315 203.872L267.003 201.853C266.589 201.49 266.227 201.18 265.866 200.766L263.384 202.629C263.022 202.888 262.97 203.406 263.229 203.717Z" fill="#CBCBCB"/>
<path d="M260.954 201.387C261.057 201.543 261.161 201.595 261.264 201.646C261.471 201.75 261.781 201.698 261.988 201.543L264.728 199.472C264.366 199.058 264.108 198.644 263.797 198.178L261.057 200.249C260.799 200.559 260.695 201.025 260.954 201.387Z" fill="#CBCBCB"/>
<path d="M172.236 162.766C186.609 149.357 204.601 136.57 220.628 125.181C235.672 114.568 251.855 97.1212 268.347 106.854C288.717 118.865 272.535 162.404 265.142 184.458C258.731 185.648 251.234 182.076 244.823 183.267C240.119 148.581 243.634 156.398 243.014 146.665C221.3 170.014 203.567 187.409 178.802 195.692L172.236 162.766Z" fill="#E7C264"/>
<path d="M210.133 151.532L192.865 156.398C178.337 154.069 168.462 144.491 161.689 133.205C166.808 130.203 171.616 126.527 176.682 124.146C185.161 136.001 196.225 145.009 210.133 151.532Z" fill="#F6BD96"/>
<path d="M161.121 79.3125L158.691 80.8139C158.587 80.2961 158.432 79.8302 158.329 79.3125H161.121Z" fill="#A6A8AB"/>
<path d="M162.103 83.04C165.929 100.435 171.099 111.824 179.423 123.421C174.304 125.802 164.791 132.015 159.673 134.966C147.627 114.879 147.524 87.5958 147.524 87.5958L162.103 83.04Z" fill="black"/>
<path d="M169.444 192.431C162.568 196.676 147.885 195.847 139.096 194.035C147.782 181.455 164.378 171.619 175.648 160.333C179.629 172.085 182.008 184.665 169.444 192.431Z" fill="#D2AB47"/>
<path d="M104.819 111.151C106.267 98.571 111.437 81.7456 122.604 74.3942C131.134 68.7513 145.145 64.1955 155.33 67.457C167.376 71.288 161.844 90.5466 162.723 99.8135C164.274 116.846 168.514 133.62 175.338 149.306C176.217 151.377 177.199 153.499 177.148 155.725C177.096 160.437 171.461 164.268 168.307 167.011C163.912 170.842 159.363 174.518 154.865 178.297C153.004 179.85 130.824 200.766 131.496 201.128C121.415 195.485 110.248 161.576 107.559 148.685C104.974 136.415 103.423 123.68 104.819 111.151Z" fill="#151515"/>
<path d="M129.48 190.412C130.359 182.129 134.702 180.42 142.457 180.058C166.911 178.971 190.797 176.537 215.354 177.676C222.437 177.987 230.399 178.919 234.794 184.458C237.999 188.445 238.568 193.932 238.93 199.058C241.36 233.122 241.773 267.291 240.067 301.408C233.036 303.737 225.849 304.203 215.096 304.824C210.081 284.686 199.948 212.155 199.896 212.155C187.695 212.466 178.544 212.932 166.239 213.864C157.295 214.537 147.834 214.433 140.027 210.085C132.996 206.098 128.653 198.488 129.48 190.412Z" fill="#E7C264"/>
<path opacity="0.78" d="M205.997 202.578L216.543 304.773C216.078 304.825 215.613 304.825 215.148 304.877C210.133 284.738 199.999 212.208 199.948 212.208C187.746 212.518 178.595 212.984 166.291 213.916C157.347 214.589 147.885 214.486 140.079 210.137C136.46 208.118 133.513 205.063 131.652 201.543C153.314 214.02 181.232 200.352 205.997 202.578Z" fill="#CCA43F"/>
<path d="M159.466 174.467C148.713 183.423 136.977 193.156 131.445 201.129C126.637 198.436 121.622 189.428 117.382 179.281C131.445 176.434 145.456 174.829 159.466 174.467Z" fill="black"/>
<path d="M207.134 167.322C208.116 167.426 209.099 167.478 210.081 167.581C209.047 167.736 208.065 167.633 207.134 167.322Z" fill="#D0CCC8"/>
<path d="M183.093 26.4033C184.851 30.0272 186.195 33.8582 186.661 37.8963C187.074 41.8827 186.557 46.0761 184.593 49.5964C182.421 41.7273 179.474 34.0136 175.855 26.7139L183.093 26.4033Z" fill="black"/>
<path d="M148.454 83.5574C142.353 81.9525 138.734 75.6366 140.337 69.5277L151.401 27.9043L173.477 33.8061L162.413 75.4295C160.81 81.5384 154.555 85.1623 148.454 83.5574Z" fill="#F6BD96"/>
<path d="M147.73 68.1303C146.955 64.8687 147.006 61.3484 147.213 58.0351C147.368 55.4465 147.73 52.858 148.402 50.373C150.263 50.6837 151.97 51.7191 153.624 52.5992C155.382 53.531 157.295 54.2041 159.208 54.8771C161.844 55.8607 164.533 56.7408 167.169 57.6209L162.413 75.4299C161.896 77.3972 160.862 79.1056 159.518 80.4516C153.469 79.3644 149.074 74.0321 147.73 68.1303Z" fill="#E7A579"/>
<path d="M161.017 76.4649C183.455 88.4757 196.277 33.2367 173.58 20.3976C147.782 5.79841 139.768 33.4955 147.73 55.9121C150.574 63.8847 153.469 72.4268 161.017 76.4649Z" fill="#F6BD96"/>
<path d="M145.249 53.2721C144.938 55.0323 144.215 56.689 143.181 58.1385C143.594 57.6208 141.578 52.7027 141.371 51.9779C139.768 46.0761 138.166 40.0189 138.734 33.91C138.941 31.8392 139.458 29.7684 140.285 27.8529C145.817 15.1174 162.723 12.1147 174.201 18.8449C176.579 20.2427 178.905 21.9511 180.87 23.8666C183.093 26.0409 184.851 28.733 185.42 31.7357C185.988 34.7901 185.161 38.1552 182.886 40.226C176.165 46.3349 167.893 38.7247 162.413 35.1007C159.725 33.3406 155.795 31.9428 153.521 34.2206C150.263 37.4304 149.798 44.9889 149.953 49.4929C149.953 49.9071 148.092 50.0106 147.989 49.4411C147.834 48.3022 148.04 47.4221 147.058 47.0079C146.8 46.9044 144.938 46.0761 145.352 47.0597C146.076 49.1823 145.662 51.046 145.249 53.2721Z" fill="black"/>
<path d="M148.454 47.6807C148.144 47.0595 147.679 46.49 147.006 46.1794C146.334 45.9205 145.507 46.0241 145.042 46.5418C144.525 47.163 144.628 48.0431 144.835 48.8197C145.352 50.6834 146.489 52.3918 147.575 53.9967L148.454 47.6807Z" fill="#F6BD96"/>
<path d="M179.94 67.457C179.991 67.5605 180.095 67.7158 180.146 67.8194C180.974 69.6313 180.095 71.7021 179.164 73.4623C177.768 76.2062 176.217 79.0535 173.529 80.5549C168.41 83.454 162.258 80.3478 158.122 77.138C153.779 73.7212 150.419 69.0101 148.506 63.833C146.128 57.3617 146.128 50.0104 148.454 43.5391C149.385 44.7816 149.747 45.7134 149.85 47.2148C149.953 48.9232 149.23 58.1383 154.555 63.7295C156.933 66.2145 161.276 66.318 164.533 66.1109C168.514 65.8521 172.546 64.5578 176.476 65.4379C177.872 65.6968 179.216 66.318 179.94 67.457Z" fill="black"/>
<path d="M150.832 21.2261C152.487 17.188 153.365 12.8393 153.314 8.4906C153.314 5.59146 152.642 2.27816 150.212 0.776817C147.627 -0.828064 144.111 0.310884 141.733 2.22639C138.786 4.60782 136.77 8.54237 137.907 12.1663C139.613 17.8093 147.678 19.7248 149.023 25.4713L150.832 21.2261Z" fill="black"/>
<path d="M175.804 71.5419C176.786 70.7653 177.148 69.264 176.579 68.125C176.372 67.6591 176.01 67.2449 175.493 67.1414C175.028 67.0379 174.563 67.245 174.201 67.5038C173.839 67.8144 173.58 68.1768 173.322 68.5392C172.702 67.9697 172.133 67.452 171.409 67.0896C170.685 66.7273 169.806 66.5719 169.031 66.8826C168.255 67.1932 167.687 67.9697 167.842 68.7981C167.945 69.3158 168.307 69.7817 168.721 70.1441C170.323 71.4901 173.839 73.095 175.804 71.5419Z" fill="#F6BD96"/>
<path d="M176.838 52.8057C176.269 55.4977 175.7 58.3969 176.838 60.9336C177.044 61.3995 177.303 61.8655 177.096 62.3314C176.941 62.6938 176.527 62.9009 176.114 63.0044C175.493 63.2115 174.821 63.3151 174.201 63.3151" stroke="#E7A579" stroke-width="1.458" stroke-miterlimit="10" stroke-linecap="round"/>
<path d="M192.805 178.063H153.409V174.129H192.805V178.063Z" fill="#525252"/>
<path d="M246.685 178.091H175.907L185.989 138.538C186.712 135.587 189.401 133.568 192.399 133.568H254.388C256.249 133.568 257.594 135.329 257.128 137.089L246.685 178.091Z" fill="#6F6F6F"/>
<path d="M185.989 138.538L175.907 178.091H180.301L191.676 133.62C188.935 133.931 186.661 135.846 185.989 138.538Z" fill="#525252"/>
<path opacity="0.88" d="M220.628 157.745C218.801 157.745 217.319 156.261 217.319 154.431C217.319 152.602 218.801 151.118 220.628 151.118C222.455 151.118 223.937 152.602 223.937 154.431C223.937 156.261 222.455 157.745 220.628 157.745Z" fill="#EDEDED"/>
<path d="M141.578 119.693C143.026 133.671 147.575 167.633 147.575 167.633C158.484 164.319 169.186 164.578 179.991 162.145L177.355 172.396C162.879 176.589 149.178 181.87 146.748 182.543C142.457 183.733 137.494 183.578 133.978 180.886C130.824 178.453 129.325 174.415 128.188 170.584C123.742 156.088 119.761 141.644 118.261 126.889C127.257 125.026 131.238 119.745 141.578 119.693Z" fill="#F6BD96"/>
<path d="M116.969 107.423C117.641 98.8813 118.261 85.2657 124.982 81.1241C135.064 74.8599 144.835 85.7317 145.455 95.6716C146.179 106.906 148.144 117.674 149.281 128.39C137.855 128.39 127.412 128.546 117.434 130.668C116.607 123.006 116.348 115.293 116.969 107.423Z" fill="black"/>
<path d="M116.969 107.423C117.537 99.9162 118.106 88.5267 122.759 83.0391C117.848 98.156 119.399 114.464 120.588 130.098C119.502 130.305 118.468 130.461 117.382 130.72C116.607 123.006 116.348 115.292 116.969 107.423Z" fill="#7E7E7E"/>
<path d="M145.972 102.039C145.921 101.677 145.921 101.315 145.869 100.9C145.921 101.263 145.921 101.625 145.972 102.039Z" fill="#E5E6E7"/>
<path d="M145.972 102.039C146.903 110.995 148.351 119.693 149.229 128.442C148.092 128.442 147.058 128.442 145.921 128.442C146.283 117.26 146.489 108.769 145.972 102.039Z" fill="#7E7E7E"/>
<path d="M241.463 292.606C241.721 292.762 241.928 293.021 242.135 293.435C242.807 294.833 242.238 296.644 242.238 298.146C242.238 299.647 242.238 301.148 242.238 302.598C242.238 302.598 231.536 308.707 213.183 306.222C212.769 306.17 211.684 298.715 211.632 298.042C211.167 293.849 217.836 295.454 220.369 295.35C223.575 295.247 226.832 295.04 230.037 294.677C232.932 294.367 235.931 293.901 238.723 292.969C239.705 292.658 240.687 292.089 241.463 292.606Z" fill="#BD9631"/>
<path d="M265.762 188.703C265.245 190.256 264.366 191.809 262.867 192.534C261.523 193.155 259.92 192.896 258.472 192.637C252.889 191.602 247.357 190.36 241.877 188.91C242.083 186.425 242.29 183.94 242.445 181.507C242.497 180.989 242.549 180.42 242.859 179.954C243.531 178.97 245.03 179.125 246.219 179.384C252.94 180.937 260.851 181.662 267.21 184.302C267.003 185.7 266.279 187.305 265.762 188.703Z" fill="#BD9631"/>
<path d="M148.196 164.785L203.412 346.395C203.929 348.052 205.686 348.984 207.341 348.466C208.995 347.948 209.926 346.24 209.46 344.635L158.381 161.834C157.605 159.038 154.658 157.382 151.866 158.158C149.074 158.935 147.42 161.886 148.196 164.681C148.196 164.681 148.196 164.733 148.196 164.785Z" fill="#020202"/>
<path d="M97.5293 179.54L80.1064 321.443C79.9513 322.892 80.9336 324.186 82.3812 324.394C83.7771 324.549 85.0696 323.565 85.2764 322.219L107.973 181.093C108.438 178.194 106.474 175.502 103.578 175.036C100.683 174.57 97.9946 176.537 97.5293 179.437C97.581 179.437 97.581 179.488 97.5293 179.54Z" fill="#020202"/>
<path d="M80.6234 188.341L168.721 162.766C171.513 161.938 173.115 159.039 172.34 156.243C171.513 153.448 168.617 151.843 165.826 152.619C165.774 152.619 165.67 152.671 165.619 152.671L78.5554 181.611C76.6942 182.232 75.7119 184.199 76.3323 186.063C76.901 187.875 78.8139 188.858 80.6234 188.341Z" fill="#020202"/>
<path d="M396.207 339.639C396.251 339.639 396.296 339.639 396.341 339.639C397.01 339.639 397.501 339.102 397.501 338.432L396.698 272.194C396.698 271.569 396.162 271.032 395.493 271.032C394.823 271.032 394.332 271.569 394.332 272.239L395.136 338.477C395.136 339.103 395.627 339.594 396.207 339.639Z" fill="#0B0B0B"/>
<path d="M424.237 350.768C424.327 350.768 424.416 350.768 424.46 350.724C425.085 350.59 425.487 349.964 425.353 349.338L408.972 268.887C408.838 268.262 408.214 267.859 407.589 267.994C406.964 268.128 406.562 268.753 406.696 269.379L423.077 349.83C423.211 350.411 423.702 350.768 424.237 350.768Z" fill="#0B0B0B"/>
<path d="M358.759 350.768C359.294 350.768 359.785 350.366 359.919 349.83L376.3 269.379C376.434 268.753 376.032 268.128 375.407 267.994C374.782 267.859 374.157 268.262 374.024 268.887L357.643 349.338C357.509 349.964 357.911 350.59 358.535 350.724C358.625 350.768 358.714 350.768 358.759 350.768Z" fill="#0B0B0B"/>
<path d="M392.949 274.608C378.774 274.608 367.284 270.426 367.284 265.267C367.284 260.108 378.774 255.926 392.949 255.926C407.123 255.926 418.613 260.108 418.613 265.267C418.613 270.426 407.123 274.608 392.949 274.608Z" fill="#0B0B0B"/>
<path d="M391.476 309.381C378.608 309.381 368.176 306.659 368.176 303.302C368.176 299.945 378.608 297.224 391.476 297.224C404.343 297.224 414.775 299.945 414.775 303.302C414.775 306.659 404.343 309.381 391.476 309.381Z" stroke="#0B0B0B" stroke-width="4.7867" stroke-miterlimit="10"/>
<path d="M383.352 203.096C383.397 202.962 383.442 202.828 383.576 202.739C383.665 202.649 383.754 202.605 383.843 202.605C384.066 202.56 384.29 202.515 384.557 202.47C384.602 202.47 384.602 202.47 384.647 202.47C385.852 202.381 387.102 202.783 388.262 203.454C390.405 204.661 392.324 206.806 393.484 208.772C393.618 207.432 393.797 206.091 394.02 204.75C394.243 203.275 394.466 201.8 394.779 200.325C394.823 200.102 394.868 199.878 394.913 199.655C395.091 198.761 395.27 197.867 395.448 196.928C395.136 196.705 394.868 196.481 394.556 196.213C392.547 194.604 390.851 192.906 389.869 190.269C389.735 189.867 389.557 189.375 389.423 188.839C389.066 187.408 389.066 185.799 390.94 185.889C392.993 186.023 394.556 188.258 395.582 189.867C395.627 189.911 395.627 189.956 395.671 189.956C396.028 190.537 396.386 191.163 396.698 191.788C397.189 190.001 397.68 188.213 398.26 186.425C398.662 185.039 399.153 183.609 399.644 182.224C399.689 182.045 399.733 181.911 399.822 181.732C399.778 181.687 399.733 181.643 399.689 181.643C399.153 181.196 398.483 180.838 397.992 180.302C397.546 179.9 397.189 179.408 396.877 178.872C396.698 178.603 396.564 178.335 396.43 178.067C395.716 176.592 395.448 174.983 395.18 173.329C395.091 172.614 394.957 171.318 395.136 170.201C395.314 169.083 395.895 168.234 397.055 168.368C399.287 168.636 400.18 172.033 400.76 173.866C401.072 174.938 401.385 176.101 401.608 177.307C403.393 173.24 405.536 169.307 408.08 165.687C406.116 164.525 405.179 161.307 405.536 158.982C405.67 158.044 405.937 157.105 406.384 156.256C406.83 155.407 407.41 154.558 408.08 153.798C408.749 153.038 409.553 152.368 410.356 151.742C411.16 151.116 412.097 150.624 412.99 150.178C413.481 149.909 413.882 150.267 413.838 150.759C413.168 154.334 412.766 157.91 411.784 161.038C413.302 159.34 414.909 157.686 416.65 156.256C417.676 153.574 419.417 151.161 421.827 149.328C424.282 147.63 427.451 146.736 430.62 147.496C430.933 147.585 431.067 147.943 430.977 148.256C430.62 149.105 430.129 149.82 429.594 150.401C429.326 150.714 429.013 150.982 428.746 151.25C428.433 151.563 428.165 151.831 427.853 152.055C426.558 152.993 425.175 153.887 423.925 154.692C423.211 155.183 422.407 155.541 421.649 155.898C420.89 156.301 420.042 156.614 419.238 156.971C418.48 157.329 417.721 157.642 417.007 157.999C416.293 158.357 415.578 158.848 414.953 159.474C413.748 160.681 412.588 161.932 411.517 163.318C412.409 162.781 413.391 162.335 414.418 162.066C415.444 161.753 416.426 161.619 417.453 161.664C419.462 161.753 421.292 162.558 422.72 164.256C422.988 164.569 422.898 164.882 422.675 165.061C421.247 165.776 418.971 166.536 416.516 167.027C414.061 167.474 411.472 167.608 409.419 166.134L409.285 166.268C409.24 166.312 409.24 166.312 409.196 166.357C406.428 170.245 404.197 174.491 402.322 178.872C403.17 178.067 404.152 177.397 404.821 176.95C406.116 176.056 407.5 175.385 408.928 174.938C410.356 174.492 411.874 174.268 413.436 174.402C413.838 174.447 414.061 174.76 414.016 175.117C413.793 176.503 413.123 177.575 412.097 178.38C411.963 178.514 411.784 178.648 411.606 178.782C410.713 179.453 409.597 179.989 408.526 180.436C408.08 180.615 407.589 180.749 407.053 180.883C405.089 181.33 402.858 181.464 401.251 182.805C398.751 184.995 399.287 189.509 397.903 192.369C397.859 192.414 397.859 192.459 397.814 192.548C397.859 192.504 397.903 192.414 397.903 192.369C399.599 189.196 402.724 186.246 405.848 184.95C406.741 184.593 407.589 184.324 408.481 184.28C408.794 184.235 409.106 184.458 409.151 184.727C409.553 187.676 407.901 190.045 405.58 192.101C405.312 192.325 405.045 192.548 404.777 192.727C403.929 193.397 402.991 194.068 402.054 194.649C401.697 194.872 401.34 195.096 400.983 195.319C399.867 195.99 398.796 196.571 397.814 197.062C397.769 197.107 397.68 197.152 397.635 197.152C397.457 197.241 397.234 197.331 397.055 197.42C397.01 197.465 396.921 197.465 396.877 197.465C396.832 197.465 396.743 197.465 396.698 197.465C396.653 197.509 396.653 197.509 396.609 197.509C396.386 198.493 396.207 199.521 396.028 200.504C396.028 200.593 395.984 200.638 395.984 200.683C395.671 202.292 395.404 203.856 395.18 205.465C395.047 206.448 394.913 207.387 394.779 208.37C394.734 208.504 394.734 208.638 394.734 208.728C394.823 208.638 394.868 208.549 394.913 208.415C395.091 208.191 395.225 207.968 395.404 207.7C395.671 207.342 395.939 206.985 396.252 206.672C397.055 205.778 397.992 204.929 398.974 204.258C399.912 203.633 400.938 203.141 401.965 202.873C402.724 202.694 403.482 202.605 404.197 202.649C404.464 202.694 404.643 202.917 404.643 203.141C404.688 203.23 404.643 203.364 404.598 203.454C404.241 204.035 403.84 204.661 403.393 205.286C401.831 207.566 399.822 209.935 397.368 211.365C397.055 211.544 396.698 211.722 396.341 211.856C396.296 211.901 396.252 211.901 396.252 211.901C396.028 212.035 395.761 212.125 395.493 212.214H395.448C395.27 212.303 395.091 212.348 394.913 212.393C394.689 212.482 394.466 212.527 394.243 212.572C394.109 212.616 394.02 213.555 393.975 214.717C393.931 215.387 393.931 216.147 393.886 216.818C393.841 217.846 393.841 218.739 393.841 218.963V219.142C393.841 219.276 393.841 219.365 393.841 219.499C393.841 219.678 393.841 219.857 393.841 220.036C393.841 220.125 393.841 220.259 393.841 220.348C393.797 221.198 393.797 222.002 393.797 222.851C393.797 223.298 393.797 223.79 393.797 224.282C393.797 224.818 393.797 225.31 393.797 225.846C393.797 226.293 393.841 226.784 393.841 227.231C393.841 227.366 393.841 227.5 393.841 227.589C393.886 228.483 393.886 229.377 393.975 230.226C394.109 232.327 394.332 234.427 394.734 236.483C394.823 236.886 394.913 237.243 395.002 237.645C395.002 237.735 395.047 237.869 395.091 237.958C395.18 238.271 395.225 238.539 395.314 238.852C395.18 238.852 395.002 238.852 394.868 238.852H394.645C394.645 238.852 394.645 238.852 394.6 238.852C394.199 238.852 393.797 238.897 393.395 238.852C393.395 238.852 393.395 238.852 393.395 238.807C393.306 235.902 393.038 233.042 392.859 230.137C392.815 229.779 392.815 229.466 392.815 229.109C392.77 228.572 392.77 228.036 392.726 227.5C392.681 226.963 392.681 226.382 392.681 225.846C392.681 225.712 392.681 225.578 392.681 225.444V225.22C392.681 224.907 392.726 223.835 392.77 222.36C392.77 221.957 392.815 221.555 392.815 221.153V220.929C392.859 220.304 392.859 219.678 392.904 219.008C392.904 218.873 392.904 218.739 392.949 218.561C392.993 217.711 392.993 216.818 393.038 216.013C393.083 215.164 393.083 214.359 393.127 213.689C393.172 212.572 393.217 211.856 393.261 211.856C392.993 211.812 392.681 211.722 392.413 211.678C391.476 211.409 390.538 211.052 389.69 210.56C389.199 210.292 388.708 209.979 388.217 209.666C388.039 209.532 387.816 209.398 387.637 209.264C387.236 208.951 386.878 208.638 386.566 208.281C386.432 208.147 386.298 207.968 386.164 207.834C385.138 206.582 384.379 205.152 383.486 203.633C383.308 203.409 383.308 203.275 383.352 203.096Z" fill="#00B580"/>
<path d="M338.093 182.134C339.834 179.855 343.494 179.319 346.707 179.274C348.537 179.229 350.323 179.587 352.064 180.078C353.67 180.481 355.099 181.151 356.839 181.419C358.491 181.732 360.187 182.09 361.794 182.581C358.402 180.391 354.608 177.754 354.92 174.492C354.965 174.179 355.367 174.045 355.768 174.179C357.911 174.804 360.723 176.19 362.731 178.022C364.74 179.81 365.811 182 365.052 183.699L365.231 183.788C365.275 183.788 365.32 183.833 365.32 183.833C367.507 184.682 369.56 185.889 371.524 187.23C373.443 188.57 375.229 190.179 376.836 191.878C376.345 190.895 375.988 189.777 375.631 189.107C374.425 186.291 373.131 183.52 372.506 180.749C372.417 180.391 372.774 180.257 373.176 180.391C374.961 180.972 376.389 182.179 377.461 183.52C378.487 184.861 379.112 186.38 379.469 187.811C380.005 190.224 379.023 192.37 379.648 194.738C380.049 196.258 381.121 197.599 382.192 199.029C383.084 200.191 383.977 201.353 384.557 202.56C384.691 202.828 384.781 203.096 384.87 203.32C384.781 203.052 384.691 202.828 384.602 202.56C383.977 200.638 383.531 198.582 383.218 196.526C382.861 194.247 382.772 192.012 383.084 190.314C383.129 190.045 383.397 189.911 383.709 190.135C386.521 192.012 387.905 195.141 388.307 198.225C388.574 200.012 388.485 201.845 388.262 203.499C388.084 204.661 387.86 205.778 387.593 206.672C387.593 206.717 387.548 206.806 387.548 206.851C387.503 207.029 387.459 207.208 387.414 207.387C387.369 207.476 387.325 207.566 387.235 207.61C387.235 207.655 387.235 207.655 387.191 207.7C387.503 208.37 387.816 209.041 388.128 209.711C388.485 210.516 388.842 211.32 389.155 212.125C389.914 213.957 390.628 215.79 391.253 217.712C391.297 217.801 391.297 217.846 391.342 217.935C391.342 217.89 391.342 217.801 391.342 217.756C391.386 216.773 391.476 215.79 391.61 214.806C391.699 214.225 391.788 213.6 391.922 213.063C391.967 212.84 392.056 212.616 392.101 212.393C392.145 212.214 392.235 211.991 392.279 211.812C392.547 210.963 392.904 210.203 393.35 209.577C393.663 209.13 394.02 208.728 394.466 208.46C394.511 208.415 394.6 208.415 394.645 208.415C394.689 208.415 394.734 208.46 394.779 208.46C394.957 208.549 395.136 208.773 395.136 208.996C395.225 209.666 395.314 210.382 395.359 211.097C395.404 211.454 395.404 211.856 395.404 212.214C395.404 212.795 395.404 213.421 395.359 214.002C395.359 214.047 395.359 214.047 395.359 214.047C395.314 214.806 395.225 215.521 395.091 216.237C394.913 217.354 394.6 218.382 394.109 219.276C394.065 219.365 394.02 219.455 393.931 219.589C393.886 219.678 393.841 219.723 393.841 219.767C393.797 219.857 393.752 219.946 393.707 219.991C393.395 220.438 393.083 220.84 392.681 221.198C392.636 221.242 392.636 221.242 392.592 221.287C392.502 221.376 392.413 221.466 392.279 221.555C392.368 221.868 392.458 222.181 392.547 222.539C392.636 222.941 392.77 223.343 392.859 223.745C393.038 224.371 393.172 225.041 393.35 225.712C393.484 226.248 393.574 226.74 393.707 227.276C393.752 227.41 393.752 227.544 393.797 227.634C393.975 228.528 394.154 229.377 394.288 230.271C394.466 231.343 394.645 232.371 394.779 233.444C394.913 234.383 395.002 235.321 395.091 236.26C395.18 237.109 395.225 238.003 395.314 238.897H395.136C395.002 238.897 394.823 238.897 394.689 238.897H394.466C394.466 238.897 394.466 238.897 394.422 238.897C394.243 235.992 393.886 233.087 393.395 230.226C393.261 229.422 393.083 228.617 392.949 227.768C392.949 227.723 392.904 227.634 392.904 227.589C392.77 227.008 392.681 226.472 392.547 225.891C392.547 225.801 392.502 225.757 392.502 225.667C392.145 224.192 391.788 222.762 391.386 221.332C390.538 221.466 389.646 221.466 388.753 221.287C388.039 221.198 387.369 221.019 386.655 220.795C386.254 220.661 385.852 220.483 385.45 220.349C384.2 219.723 383.129 218.829 381.835 218.069C381.522 217.846 381.478 217.443 381.745 217.22C382.683 216.192 384.2 215.924 385.852 216.237C386.298 216.326 386.745 216.415 387.235 216.594C387.726 216.773 388.173 216.952 388.619 217.22C389.289 217.577 389.958 218.024 390.494 218.516C390.271 217.846 390.047 217.22 389.824 216.549C389.333 215.119 388.753 213.689 388.173 212.303C387.637 210.963 387.057 209.666 386.387 208.415C386.343 208.281 386.254 208.102 386.209 207.968C386.12 207.968 386.075 207.968 386.03 207.923C384.334 207.789 382.817 207.61 381.21 207.074C380.63 206.895 380.049 206.627 379.424 206.314C378.755 205.957 377.684 205.376 377.193 204.661C376.88 204.214 376.836 203.677 377.371 203.141C378.442 201.934 380.54 202.336 382.058 202.828C382.415 202.962 382.817 203.096 383.218 203.23C383.397 203.32 383.62 203.409 383.799 203.499C383.665 203.275 383.531 203.096 383.442 202.873C381.879 200.236 380.183 197.599 378.309 195.23C377.728 195.319 377.193 195.632 376.612 195.766C375.943 195.9 375.184 195.9 374.47 195.856C373.22 195.766 371.971 195.453 370.81 195.23C370.274 195.096 369.382 194.962 368.668 194.694C367.998 194.426 367.462 193.979 367.73 193.129C367.953 192.325 368.712 191.833 369.605 191.52C370.498 191.252 371.569 191.207 372.372 191.252C373.31 191.297 374.336 191.431 375.318 191.789C373.845 190.269 372.238 188.883 370.498 187.721C368.757 186.559 366.882 185.531 364.963 184.771C364.695 185.576 363.936 186.246 363.088 186.827C362.24 187.364 361.258 187.766 360.41 187.989C357.688 188.705 354.697 187.989 351.885 187.096C351.528 186.961 351.439 186.559 351.751 186.336C353.938 184.771 356.616 183.341 359.651 183.073C357.554 182.581 355.456 182.224 353.313 181.956C348.448 183.386 343.494 184.727 338.272 182.939C338.004 182.626 337.914 182.313 338.093 182.134Z" fill="#0A8E6D"/>
<path d="M389.556 207.342C391.029 207.074 392.368 207.968 393.44 209.443C394.065 210.247 394.6 211.275 395.002 212.303C395.225 212.884 395.404 213.421 395.537 214.002C395.537 214.046 395.582 214.091 395.582 214.18C395.805 213.421 396.028 212.616 396.296 211.856C396.341 211.767 396.341 211.677 396.386 211.543C397.189 209.085 398.037 206.627 398.974 204.213C399.108 203.811 399.287 203.409 399.421 203.007C399.242 202.783 399.108 202.515 398.93 202.292C397.948 200.861 397.1 199.386 396.832 197.375C396.787 197.107 396.743 196.839 396.743 196.526C396.743 196.437 396.698 196.347 396.698 196.213C396.609 195.096 396.743 192.861 397.769 192.28C397.769 192.28 397.769 192.235 397.814 192.235C397.992 192.146 398.171 192.101 398.394 192.101C398.528 192.101 398.617 192.101 398.751 192.146C399.956 192.414 400.537 193.844 400.894 195.185C400.983 195.587 401.072 195.99 401.161 196.347C401.251 196.66 401.295 196.973 401.34 197.33C401.385 197.643 401.429 197.956 401.474 198.269C402.456 196.302 403.482 194.425 404.643 192.593C405.312 191.52 406.027 190.492 406.83 189.509C406.607 188.928 406.16 188.526 405.937 187.945C405.669 187.274 405.58 186.514 405.625 185.665C405.625 185.397 405.669 185.129 405.714 184.816C405.848 183.654 406.25 182.447 406.696 181.285C406.741 181.151 406.83 180.972 406.875 180.793C407.142 180.123 407.544 179.274 408.124 178.603C408.839 177.709 409.731 177.084 410.624 177.486C411.115 177.709 411.383 178.156 411.427 178.737C411.472 179.095 411.472 179.497 411.427 179.899C411.293 180.972 410.981 182.09 410.802 182.939C410.535 183.922 410.267 184.95 409.954 185.978C413.034 182.894 416.65 180.302 420.711 178.737C420.31 177.978 420.443 176.95 420.89 175.922C421.336 174.938 422.184 173.91 423.077 173.24C424.55 172.123 426.469 171.452 428.478 171.229C430.486 171.05 432.539 171.229 434.28 171.676C434.771 171.81 434.86 172.212 434.503 172.435C431.87 174.044 429.147 175.788 426.335 177.218C428.567 176.905 430.799 176.816 433.03 176.905C435.485 176.011 438.253 175.519 440.975 175.653C443.698 175.788 446.376 176.547 448.786 178.067C449.054 178.246 449.054 178.559 448.876 178.693C446.555 180.48 442.805 180.034 439.636 179.721C437.851 179.542 436.155 179.006 434.414 178.603C432.807 178.201 431.334 177.709 429.594 177.799C427.897 177.888 426.246 178.112 424.594 178.469C426.603 178.603 428.567 179.229 429.951 180.302C431.334 181.33 432.182 182.76 432.138 184.414C432.138 184.727 431.825 184.905 431.557 184.816C429.951 184.458 427.853 183.788 425.933 182.983C424.014 182.179 422.05 181.24 421.381 179.453L421.202 179.542C421.158 179.542 421.113 179.542 421.068 179.587C416.783 181.24 412.945 184.056 409.82 187.453C410.758 186.917 411.829 186.604 412.499 186.38C415.221 185.486 417.899 185.531 420.042 186.693C420.31 186.827 420.31 187.185 420.131 187.363C419.372 188.302 418.435 188.838 417.364 189.241C416.292 189.643 415.087 189.866 413.882 190C411.874 190.269 409.642 189.464 407.544 190.626C406.205 191.386 405.223 192.906 404.464 194.47C403.661 196.079 403.036 197.733 402.099 199.029C403.438 197.196 405.223 195.543 407.142 194.47C409.017 193.397 410.981 192.906 412.499 193.129C412.722 193.174 412.945 193.397 412.856 193.621C412.231 196.079 410.401 197.777 408.124 199.342C406.16 200.683 403.839 201.889 401.876 202.828C401.608 202.962 401.34 203.096 401.072 203.23C401.028 203.275 400.983 203.275 400.938 203.32C400.76 203.409 400.626 203.454 400.447 203.543C400.358 203.588 400.269 203.588 400.179 203.588C400.135 203.588 400.135 203.632 400.09 203.632C399.064 206.18 398.171 208.728 397.323 211.365C397.01 212.303 396.698 213.287 396.43 214.225C396.877 213.599 397.412 213.018 397.992 212.437C398.305 212.124 398.617 211.812 398.93 211.543C399.108 211.365 399.287 211.231 399.465 211.096C400.626 210.158 401.876 209.487 403.081 209.219C403.393 209.175 403.661 209.13 403.929 209.13C404.241 209.085 404.554 209.13 404.866 209.219C405.134 209.264 405.223 209.756 405 210.024C404.866 210.203 404.732 210.337 404.643 210.515C403.75 211.722 402.724 212.974 401.652 214.136C401.652 214.136 401.608 214.136 401.608 214.18C400.849 214.985 400.046 215.7 399.198 216.281C397.992 217.13 396.698 217.756 395.404 217.89C395.27 218.426 395.136 218.963 395.002 219.499C394.957 219.678 394.913 219.857 394.868 220.08C394.6 221.108 394.332 222.136 394.109 223.209C394.02 223.566 393.931 223.969 393.841 224.326C393.752 224.773 393.618 225.22 393.529 225.712C393.395 226.337 393.261 227.008 393.127 227.634C393.083 227.678 393.083 227.768 393.083 227.812C392.993 228.259 392.904 228.751 392.815 229.198C392.726 229.555 392.681 229.868 392.636 230.226C392.19 232.729 391.788 235.232 391.476 237.735C391.431 238.137 391.342 238.539 391.297 238.941C391.208 238.941 391.074 238.941 390.985 238.941C390.806 238.941 390.583 238.941 390.405 238.941C390.449 238.584 390.494 238.226 390.538 237.869C390.628 237.288 390.672 236.707 390.762 236.126C391.029 234.159 391.342 232.192 391.699 230.226C391.833 229.332 392.011 228.438 392.19 227.589C392.324 226.963 392.458 226.337 392.592 225.667C392.592 225.578 392.636 225.533 392.636 225.488C392.77 224.907 392.904 224.281 393.038 223.7C393.172 223.209 393.261 222.717 393.395 222.225C393.529 221.6 393.707 220.974 393.841 220.348C393.886 220.17 393.931 219.991 393.975 219.812C393.975 219.723 394.02 219.678 394.02 219.588C394.02 219.499 394.065 219.365 394.109 219.276C394.288 218.605 394.466 217.935 394.645 217.22C394.377 217.13 394.109 216.996 393.886 216.862C393.529 216.683 393.216 216.46 392.904 216.192C392.458 215.834 392.011 215.387 391.61 214.896C391.386 214.627 391.208 214.404 390.985 214.136C390.583 213.599 390.315 213.018 390.047 212.348C389.869 211.812 389.69 211.32 389.512 210.739C389.333 209.979 389.155 209.219 388.932 208.459C388.932 207.789 389.199 207.387 389.556 207.342Z" fill="#0A8E6D"/>
<path d="M392.591 218.918C392.681 218.918 392.77 218.962 392.904 218.962C393.261 219.007 393.618 219.141 393.93 219.32C394.02 219.365 394.064 219.365 394.109 219.409C394.154 219.409 394.154 219.454 394.154 219.454C394.421 219.588 394.645 219.722 394.868 219.901C395.091 220.035 395.27 220.169 395.493 220.348C395.805 220.571 396.073 220.839 396.341 221.152C397.367 222.18 398.215 223.432 398.662 224.415C399.465 222.448 400.358 220.571 401.34 218.739C400.804 218.158 400.313 217.621 399.911 217.04C399.644 216.728 399.465 216.415 399.242 216.146C398.751 215.387 398.394 214.627 398.171 213.733C398.126 213.509 398.081 213.286 398.037 212.973C397.992 212.75 397.992 212.526 397.992 212.303C398.037 211.722 398.26 211.275 398.93 211.409C398.974 211.409 399.019 211.454 399.063 211.454C399.153 211.498 399.242 211.498 399.376 211.543C400.402 211.99 401.117 213.018 401.652 213.956C401.831 214.314 402.009 214.627 402.143 214.94C402.322 215.342 402.545 215.789 402.723 216.281C403.705 214.716 404.687 213.152 405.803 211.722C405.491 211.275 405.044 210.872 404.687 210.426C404.687 210.381 404.643 210.381 404.643 210.381C404.33 209.934 404.107 209.487 403.929 209.04C403.884 208.951 403.839 208.861 403.839 208.772C403.527 207.789 403.438 206.761 403.438 205.733C403.438 205.598 403.438 205.42 403.438 205.196C403.527 204.302 403.795 203.051 404.687 203.096C404.866 203.096 405.044 203.14 405.223 203.274C406.651 204.079 406.83 206.448 407.053 207.61C407.187 208.325 407.276 209.085 407.321 209.8C408.838 208.012 410.49 206.358 412.498 205.152C411.516 203.766 411.561 201.442 412.32 200.101C413.48 197.911 416.203 197.196 418.301 197.553C418.613 197.598 418.703 197.956 418.613 198.224C417.542 200.235 416.471 202.291 415.355 203.766C416.471 203.364 417.631 203.006 418.792 202.783C420.979 200.28 424.148 198.715 427.094 200.503C427.228 200.593 427.317 200.906 427.228 201.084C426.335 203.364 424.327 203.945 422.72 204.302C421.782 204.481 420.845 204.347 419.863 204.213C418.97 204.079 418.122 203.811 417.23 204.079C416.382 204.347 415.534 204.615 414.73 204.973C415.846 205.062 417.051 205.554 417.988 206.448C418.926 207.342 419.64 208.593 419.952 210.202C419.997 210.515 419.908 210.694 419.774 210.649C418.97 210.47 417.899 209.979 416.694 209.174C415.489 208.37 414.105 207.386 413.123 205.777L413.034 205.822H412.989C410.936 207.073 409.195 208.817 407.633 210.783C408.258 210.56 408.972 210.47 409.419 210.426C411.249 210.202 413.079 210.56 414.864 211.811C415.087 211.99 415.221 212.258 415.176 212.392C414.998 213.599 413.436 213.554 411.606 213.42C410.088 213.286 408.08 212.303 406.607 212.66C404.687 213.152 404.643 215.834 403.348 216.951C405.268 215.297 408.615 214.537 411.293 215.476C411.472 215.565 411.695 215.744 411.695 215.923C411.74 217.621 410.445 218.337 408.704 218.783C406.964 219.186 404.687 219.275 402.902 219.32C402.857 219.32 402.813 219.32 402.768 219.32H402.366C402.277 219.32 402.188 219.275 402.099 219.275H402.009C401.072 221.018 400.224 222.806 399.465 224.639C401.384 223.387 404.286 222.761 406.83 223.879C407.098 223.968 407.187 224.281 407.053 224.37C405.134 225.577 402.322 227.052 398.751 226.516C398.572 226.963 398.439 227.41 398.305 227.857C397.992 228.706 397.769 229.51 397.501 230.359C396.698 233.086 396.118 235.902 395.716 238.762C395.627 238.762 395.537 238.762 395.448 238.762C395.448 238.762 395.448 238.762 395.403 238.762H395.225C395.091 238.762 394.912 238.762 394.779 238.762C394.823 238.36 394.868 237.958 394.957 237.511C395.046 237.064 395.091 236.572 395.18 236.125C395.314 235.231 395.537 234.337 395.716 233.443C395.939 232.371 396.251 231.343 396.519 230.27C396.742 229.421 397.01 228.572 397.323 227.767C397.501 227.186 397.724 226.56 397.948 225.979C397.278 225.666 396.698 225.309 396.118 224.907C395.805 224.728 395.537 224.504 395.27 224.236C394.912 223.968 394.6 223.655 394.288 223.342C394.198 223.253 394.109 223.119 394.02 223.029C393.93 222.94 393.841 222.806 393.752 222.717C393.618 222.538 393.439 222.314 393.35 222.091C393.127 221.778 392.949 221.42 392.815 221.063C392.77 221.018 392.77 220.974 392.725 220.884C392.502 220.392 392.324 219.901 392.056 219.365C392.011 219.096 392.234 218.873 392.591 218.918Z" fill="#0A8E6D"/>
<path d="M344.163 198.67C345.681 196.614 348.404 196.525 350.68 196.793C351.974 196.927 353.179 197.464 354.34 198.045C355.411 198.581 356.348 199.296 357.509 199.654C358.669 200.011 359.785 200.414 360.946 200.816C358.759 198.805 356.572 195.944 357.375 192.726C357.464 192.458 357.777 192.324 358.045 192.458C359.473 193.218 361.258 194.603 362.419 196.346C363.579 198.089 364.07 200.011 363.267 201.754L363.401 201.799C363.445 201.799 363.445 201.844 363.49 201.844C366.525 203.229 369.426 204.972 372.015 207.118C371.613 206.403 371.346 205.553 371.167 205.017C370.274 202.916 369.471 200.592 369.337 198.089C369.292 197.777 369.605 197.598 369.917 197.687C371.212 197.955 372.194 198.715 372.952 199.654C373.711 200.592 374.158 201.754 374.381 202.916C374.782 204.794 373.89 206.984 374.425 208.727C374.782 209.844 375.631 210.738 376.657 211.543C377.55 212.436 378.621 213.241 379.067 214.314C377.818 211.498 376.97 207.52 377.416 204.481C377.416 204.347 377.461 204.213 377.461 204.123C377.505 203.9 377.728 203.721 377.996 203.81C378.621 203.989 379.157 204.302 379.648 204.66C380.094 205.017 380.496 205.464 380.853 205.956C381.076 206.269 381.254 206.581 381.433 206.939C381.79 207.699 382.013 208.503 382.192 209.353C382.415 210.559 382.37 211.855 382.281 213.018C382.147 214.224 381.924 215.342 381.612 216.325C381.612 216.37 381.567 216.414 381.567 216.459C381.522 216.593 381.478 216.772 381.433 216.906C381.388 216.995 381.344 217.085 381.254 217.129C381.254 217.174 381.254 217.174 381.21 217.219C382.727 219.364 384.066 221.644 385.316 223.968C385.316 222.761 385.405 221.51 385.718 220.258C385.763 220.035 385.807 219.811 385.896 219.588C386.209 218.426 386.745 217.353 387.459 216.504C387.637 216.325 387.816 216.146 388.039 215.967C388.262 215.789 388.619 215.967 388.708 216.236C388.798 216.548 388.842 216.817 388.887 217.129C389.11 218.426 389.155 219.856 389.021 221.241C389.021 221.375 388.976 221.554 388.976 221.688C388.664 223.476 387.95 225.175 386.611 226.381C386.834 226.784 387.057 227.23 387.235 227.677C387.637 228.527 388.084 229.421 388.485 230.27C389.378 232.192 390.181 234.114 390.985 236.035C391.208 236.572 391.431 237.108 391.654 237.644C391.833 238.047 391.967 238.449 392.145 238.851H391.52C391.431 238.851 391.297 238.851 391.208 238.851C391.074 238.494 390.895 238.136 390.762 237.778C389.735 235.276 388.708 232.773 387.548 230.314C387.146 229.465 386.744 228.571 386.298 227.722C386.12 227.32 385.896 226.873 385.673 226.471C384.2 227.052 382.683 227.275 381.165 227.275C379.469 227.32 378.13 226.784 376.568 226.426C376.255 226.337 376.211 226.068 376.434 225.8C378.13 223.789 382.147 223.521 384.691 224.593C383.397 222.225 382.013 219.856 380.451 217.666C378.309 218.068 376.345 218.515 374.292 218.157C373.31 217.979 371.346 217.755 372.551 216.236C373.488 214.984 375.363 214.716 376.702 214.671C377.193 214.627 377.773 214.671 378.264 214.761C377.505 213.822 376.746 212.928 375.943 212.079C375.095 211.23 374.336 210.336 373.443 209.576C372.908 209.844 372.461 210.246 371.971 210.515C371.39 210.827 370.765 211.006 370.14 211.14C369.114 211.364 368.043 211.498 367.061 211.543C366.168 211.543 364.07 211.945 364.606 210.291C365.052 208.727 367.239 207.967 368.534 207.654C369.292 207.475 370.096 207.386 370.944 207.431C369.783 206.447 368.489 205.688 367.239 204.838C365.945 204.079 364.606 203.363 363.267 202.738C362.642 204.347 360.678 205.553 359.339 206.045C357.152 206.805 355.054 206 353.224 204.883C352.956 204.749 353.001 204.302 353.269 204.123C355.099 202.738 357.286 201.531 359.562 201.263C358.089 200.771 356.661 200.324 355.143 199.922C351.394 200.995 347.734 201.71 344.342 199.341C344.029 199.162 344.029 198.849 344.163 198.67Z" fill="#0B7C5C"/>
<path d="M385.941 163.631C382.192 160.279 378.666 156.927 377.327 151.876C377.237 151.608 377.461 151.34 377.684 151.34C380.451 151.385 383.04 154.111 384.691 156.793C385.673 158.312 386.254 159.966 386.745 161.664C387.236 163.229 387.369 164.748 388.039 166.268C388.664 167.788 389.244 169.307 389.824 170.827C389.735 168.86 389.78 166.804 390.226 165.016C390.628 163.229 391.476 161.754 392.949 161.083C393.217 160.949 393.529 161.217 393.618 161.62C394.154 163.631 394.466 166.491 394.065 168.994C393.708 171.453 392.636 173.508 390.851 174.045L390.896 174.224C390.896 174.268 390.896 174.313 390.896 174.313C392.235 178.604 393.306 183.028 394.109 187.453C394.243 186.381 394.556 185.353 394.734 184.638C395.225 182.582 395.805 180.615 396.743 178.872C397.1 178.201 397.457 177.576 397.903 177.039C398.082 176.771 398.439 176.905 398.617 177.218C399.421 178.648 399.689 180.168 399.555 181.643C399.555 181.822 399.51 182.045 399.51 182.224C399.376 183.431 399.019 184.548 398.573 185.576C398.439 185.889 398.305 186.157 398.126 186.425C397.368 187.677 396.252 188.66 395.538 189.956C395.314 190.314 395.136 190.716 395.047 191.163C394.288 193.979 396.029 197.599 395.805 200.594C395.805 200.683 395.805 200.772 395.761 200.862C395.761 200.728 395.805 200.549 395.805 200.415C395.984 199.163 396.207 197.822 396.609 196.526C397.011 194.962 397.591 193.398 398.26 192.102C398.841 190.939 399.51 189.956 400.269 189.196C400.447 189.018 400.715 189.062 400.894 189.33C401.786 190.939 402.054 192.772 401.876 194.56C401.786 195.498 401.563 196.437 401.295 197.376C401.251 197.554 401.162 197.733 401.117 197.957C400.537 199.566 399.733 201.041 398.841 202.337C398.216 203.32 397.501 204.214 396.877 204.974C396.832 205.018 396.787 205.063 396.787 205.108C396.653 205.242 396.564 205.376 396.43 205.51C396.341 205.599 396.296 205.644 396.207 205.644C396.162 205.689 396.162 205.689 396.118 205.733C396.118 206.046 396.162 206.359 396.162 206.717C396.252 208.326 396.296 209.98 396.296 211.633C396.296 211.723 396.296 211.812 396.296 211.901C396.341 213.421 396.341 214.941 396.341 216.46C396.787 215.343 397.323 214.226 397.992 213.153C398.305 212.617 398.662 212.08 399.019 211.633C399.153 211.454 399.287 211.32 399.421 211.142C400.358 210.069 401.474 209.264 402.634 209.041C402.768 208.996 402.902 209.13 402.992 209.264C403.081 209.398 403.081 209.577 403.081 209.756C402.724 211.186 402.233 212.706 401.563 214.136V214.181C401.072 215.298 400.492 216.326 399.822 217.22C398.841 218.561 397.68 219.544 396.296 220.036C396.296 220.483 396.296 220.885 396.252 221.332C396.207 222.583 396.207 223.835 396.162 225.042C396.118 225.936 396.118 226.829 396.073 227.723C396.029 228.573 395.984 229.466 395.939 230.36C395.895 231.433 395.85 232.506 395.761 233.578C395.671 235.366 395.538 237.109 395.448 238.897C395.448 238.897 395.448 238.897 395.404 238.897H395.225C395.091 238.897 394.913 238.897 394.779 238.897H394.556C394.6 238.093 394.645 237.288 394.69 236.484C394.779 235.456 394.823 234.472 394.868 233.444C394.913 232.372 395.002 231.344 395.047 230.271C395.091 229.377 395.136 228.528 395.181 227.634C395.225 226.517 395.27 225.444 395.314 224.327C395.359 223.03 395.404 221.734 395.404 220.438C395.404 220.125 395.448 219.812 395.448 219.5C395.27 219.455 395.136 219.455 394.957 219.41C394.69 219.365 394.466 219.321 394.243 219.231C394.199 219.231 394.154 219.187 394.109 219.187C394.02 219.142 393.931 219.142 393.841 219.097C393.484 218.963 393.172 218.829 392.815 218.65C392.279 218.382 391.788 218.069 391.297 217.756C391.253 217.756 391.208 217.712 391.208 217.712C391.163 217.667 391.119 217.622 391.074 217.622C390.628 217.309 390.226 216.952 389.869 216.55C388.976 215.611 388.262 214.494 387.459 213.376C387.236 213.063 387.325 212.661 387.637 212.482C387.816 212.393 387.994 212.304 388.173 212.259C388.485 212.17 388.753 212.125 389.066 212.125C389.378 212.125 389.69 212.17 390.003 212.259C390.628 212.393 391.253 212.661 391.878 213.063C392.235 213.287 392.592 213.555 392.949 213.823C393.306 214.091 393.618 214.404 393.931 214.717C394.422 215.164 394.823 215.7 395.181 216.237C395.27 216.371 395.359 216.505 395.448 216.639V214.091V214.047C395.448 213.466 395.448 212.84 395.448 212.259C395.448 211.901 395.448 211.499 395.404 211.142C395.404 210.024 395.359 208.907 395.314 207.789C395.27 207.074 395.27 206.359 395.225 205.599C395.181 205.555 395.091 205.51 395.047 205.51C394.69 205.287 394.288 205.108 393.931 204.884C392.369 203.99 390.94 203.052 389.735 201.353C388.976 200.325 387.503 198.269 389.289 197.599C390.762 197.018 392.502 198.314 393.663 199.387C394.02 199.7 394.422 200.057 394.734 200.504C394.823 200.594 394.868 200.638 394.957 200.728C394.913 200.415 394.913 200.102 394.868 199.834C394.779 198.716 394.69 197.554 394.556 196.437C394.377 194.649 394.154 192.906 393.886 191.163C393.306 190.984 392.726 190.984 392.145 190.805C391.476 190.582 390.851 190.224 390.226 189.777C389.914 189.554 389.646 189.33 389.378 189.107C388.709 188.481 388.084 187.811 387.459 187.096C387.057 186.649 386.388 185.934 385.986 185.174C385.584 184.414 385.45 183.654 386.164 183.118C387.548 182.09 389.824 183.699 390.985 184.727C391.699 185.308 392.458 186.023 393.083 186.828C392.324 182.805 391.342 178.827 390.092 174.894C388.485 175.52 386.12 174.402 384.736 173.24C382.504 171.318 381.344 168.279 380.719 165.419C380.63 165.061 380.942 164.793 381.299 164.882C383.799 165.91 386.343 167.43 388.307 169.709C387.95 168.726 387.503 167.743 387.146 166.804L385.941 163.631Z" fill="#0B7C5C"/>
<path d="M380.228 266.295C387.994 268.575 398.126 268.575 405.893 266.295C407.41 255.077 408.972 243.903 410.713 232.685C398.974 232.685 387.191 232.685 375.452 232.685C377.148 243.903 378.71 255.077 380.228 266.295Z" fill="#BBBDBF"/>
<path d="M375.407 232.685H410.668L409.106 243.054H377.014L375.407 232.685Z" fill="#929497"/>
<path d="M373.711 232.685H412.409L411.159 240.73H374.961L373.711 232.685Z" fill="#D0D2D3"/>
<path opacity="0.64" d="M375.675 233.936L376.345 238.807" stroke="white" stroke-width="1.513" stroke-miterlimit="10" stroke-linecap="round"/>
<path opacity="0.47" d="M379.291 244.439L381.344 262.005" stroke="white" stroke-width="1.513" stroke-miterlimit="10" stroke-linecap="round"/>
</svg>
